<svg width="728" height="1341" viewBox="0 0 728 1341" fill="none" xmlns="http://www.w3.org/2000/svg">
<path d="M79.9904 270.431L50.1007 112.669C41.165 73.6206 57.964 36.2639 99.2467 29.0295L103.134 28.5641C121.911 26.3507 140.88 30.91 156.269 41.3356C171.658 51.7611 182.34 67.2891 186.191 84.8318C193.607 118.677 201.336 156.203 203.526 174.564C207.994 212.64 168.677 223.259 168.677 223.259C168.677 223.259 172.474 246.274 174.44 257.316L188.38 281.726L154.246 279.357L79.9904 270.431Z" fill="#AE7461"/>
<path d="M168.811 223.26C150.278 225.408 131.483 222.471 114.661 214.799C114.661 214.799 130.968 241.875 170.553 233.752L168.811 223.26Z" fill="#6F4439"/>
<path d="M175.334 121.808C175.539 123.226 175.148 124.663 174.246 125.81C173.344 126.957 172.001 127.723 170.509 127.943C169.786 128.077 169.043 128.074 168.322 127.933C167.601 127.793 166.917 127.517 166.31 127.123C165.702 126.73 165.184 126.225 164.785 125.639C164.386 125.054 164.114 124.399 163.986 123.712C163.78 122.306 164.166 120.88 165.06 119.74C165.954 118.601 167.285 117.84 168.766 117.62C169.489 117.473 170.236 117.465 170.962 117.598C171.687 117.731 172.378 118 172.991 118.391C173.604 118.782 174.128 119.287 174.53 119.874C174.933 120.461 175.206 121.119 175.334 121.808Z" fill="#263238"/>
<path d="M180.025 102.645C179.4 103.407 174.664 100.911 168.498 101.63C162.332 102.349 158.177 105.86 157.418 105.184C156.658 104.507 157.418 103.576 159.384 101.968C161.88 99.8758 165.004 98.5742 168.319 98.2453C171.529 97.852 174.786 98.4452 177.612 99.9375C179.489 101.08 180.293 102.264 180.025 102.645Z" fill="#263238"/>
<path d="M120.737 128.365C120.932 129.774 120.543 131.2 119.651 132.343C118.76 133.487 117.436 134.26 115.956 134.499C115.232 134.634 114.486 134.631 113.762 134.491C113.038 134.351 112.351 134.076 111.74 133.682C111.129 133.289 110.607 132.784 110.203 132.198C109.8 131.612 109.523 130.956 109.389 130.268C109.171 128.856 109.551 127.418 110.446 126.27C111.341 125.121 112.679 124.353 114.169 124.134C114.895 123.993 115.643 123.992 116.369 124.13C117.095 124.267 117.785 124.541 118.397 124.936C119.009 125.33 119.532 125.837 119.934 126.426C120.336 127.015 120.609 127.674 120.737 128.365Z" fill="#263238"/>
<path d="M119.754 111.104C119.129 111.908 114.393 109.37 108.227 110.131C102.062 110.893 97.9512 114.362 97.1916 113.685C96.4321 113.008 97.1917 112.035 99.1575 110.47C101.631 108.345 104.767 107.038 108.093 106.747C111.298 106.334 114.557 106.913 117.386 108.397C119.263 109.539 120.067 110.766 119.754 111.104Z" fill="#263238"/>
<path d="M147.767 153.367C150.892 152.022 154.177 151.042 157.552 150.448C159.116 150.11 160.59 149.644 160.679 148.587C160.622 147.052 160.06 145.573 159.071 144.356L152.905 133.568C144.327 118.168 137.893 105.434 138.564 105.096C144.879 113.772 150.48 122.894 155.318 132.383L161.26 143.299C162.482 144.983 163.051 147.016 162.869 149.052C162.703 149.601 162.408 150.107 162.005 150.533C161.603 150.958 161.104 151.291 160.545 151.506C159.704 151.848 158.817 152.076 157.909 152.183C154.595 152.985 151.187 153.383 147.767 153.367Z" fill="#263238"/>
<path d="M119.352 92.615C118.726 94.2227 112.516 93.3342 105.234 94.0534C97.9512 94.7727 91.8301 96.5495 91.0259 95.1111C90.6238 94.4342 91.6962 92.9112 94.0642 91.4305C97.2624 89.5407 100.895 88.4088 104.653 88.1306C108.382 87.7656 112.148 88.2441 115.644 89.5267C118.28 90.5843 119.62 91.8112 119.352 92.615Z" fill="#263238"/>
<path d="M178.014 85.4234C176.942 86.9465 171.715 86.2273 165.683 86.9465C159.652 87.6657 154.692 89.3156 153.307 88.0887C152.727 87.4964 153.307 86.058 155.363 84.4927C158.205 82.5304 161.555 81.3317 165.058 81.0235C168.52 80.5629 172.05 81.032 175.244 82.3774C177.612 83.3504 178.506 84.7042 178.014 85.4234Z" fill="#263238"/>
<path d="M57.0707 140.38C56.3558 140.38 28.4766 136.149 32.7657 161.787C37.0548 187.424 63.5936 178.244 63.5489 177.482C63.5043 176.721 57.0707 140.38 57.0707 140.38Z" fill="#AE7461"/>
<path d="M53.541 168.937C53.541 168.937 53.1389 169.318 52.3793 169.784C51.8661 170.108 51.2875 170.328 50.68 170.43C50.0726 170.532 49.4494 170.513 48.8497 170.376C46.9164 169.579 45.2429 168.308 44.0019 166.695C42.7609 165.081 41.9975 163.182 41.7906 161.195C41.358 158.99 41.4495 156.721 42.0587 154.553C42.133 153.664 42.4473 152.808 42.9715 152.067C43.4957 151.327 44.2122 150.726 45.0522 150.323C45.5774 150.113 46.163 150.083 46.7091 150.237C47.2551 150.392 47.7276 150.721 48.0455 151.169C48.537 151.846 48.4477 152.353 48.6264 152.396C48.8051 152.438 49.1178 151.888 48.6264 150.83C48.38 150.212 47.9033 149.7 47.2861 149.392C46.8757 149.173 46.423 149.034 45.9549 148.983C45.4869 148.932 45.0128 148.97 44.5607 149.096C43.4386 149.451 42.4351 150.081 41.6509 150.92C40.8667 151.759 40.3294 152.778 40.0928 153.876C39.2941 156.284 39.1255 158.839 39.6014 161.322C39.871 163.654 40.8632 165.859 42.4533 167.658C44.0434 169.458 46.1602 170.771 48.5371 171.434C49.3383 171.569 50.162 171.52 50.9394 171.292C51.7167 171.064 52.425 170.663 53.0049 170.122C53.6304 169.572 53.675 168.98 53.541 168.937Z" fill="#6F4439"/>
<path d="M129.181 159.969C130.119 159.969 131.192 165.722 137.313 169.065C143.434 172.407 149.957 170.63 150.18 171.476C150.403 172.322 148.884 172.872 146.07 173.38C142.426 174.046 138.65 173.446 135.436 171.688C132.319 170.027 130.011 167.279 129.002 164.03C128.332 161.619 128.734 160.011 129.181 159.969Z" fill="#263238"/>
<path d="M235.381 42.1871C234.659 40.7322 233.358 39.6069 231.762 39.0564C228.326 38.1676 224.7 38.1676 221.263 39.0564C212.539 40.1673 203.663 39.3861 195.305 36.7719C197.809 35.1199 200.025 33.1072 201.873 30.8066C203.845 28.4502 205.099 25.6283 205.501 22.6458C205.903 19.6633 205.436 16.6336 204.151 13.884C203.934 13.361 203.591 12.8933 203.149 12.5186C202.706 12.1439 202.178 11.8726 201.605 11.7264C199.728 11.4303 198.432 13.334 197.405 14.8148C196.176 17.0759 194.321 18.9786 192.039 20.3197C189.757 21.6609 187.134 22.3903 184.448 22.43C180.764 22.7795 177.044 22.3011 173.591 21.0338L173.189 20.7377L168.364 17.3531C159.12 10.2495 148.495 4.93135 137.089 1.69971C120.331 -1.44973 102.983 -0.2063 86.9157 5.29579C73.5123 10.7956 62.8342 23.3184 63.1469 37.068C54.2113 31.9912 42.595 33.7681 33.704 38.7603H33.4359C23.428 43.8794 19.1835 55.3444 17.7091 66.0056C17.7091 66.5979 17.7091 67.1903 17.7091 67.7826C15.0051 73.7083 10.8557 78.9423 5.60137 83.0552C4.66313 83.7321 3.63556 84.6206 3.68024 85.7629C3.72492 86.9051 4.88655 87.6243 5.91415 88.132C8.69171 89.452 11.743 90.1743 14.8498 90.2473C14.3216 92.8336 13.5439 95.3685 12.5266 97.8202C11.633 99.8932 10.6054 102.389 11.9457 104.251C12.5427 104.921 13.3448 105.399 14.2413 105.619C15.1377 105.839 16.0842 105.789 16.9497 105.478C18.6259 104.828 20.1457 103.864 21.4175 102.643C20.658 105.478 19.8984 108.355 19.1836 111.104C23.1279 111.153 27.0294 110.327 30.5765 108.693C34.3741 117.916 38.976 135.346 42.6396 141.438C49.8775 140.507 51.5753 139.492 55.3729 140.127C60.3769 140.888 59.8407 149.096 65.6489 145.965C68.5976 144.357 71.5465 132.385 72.1273 129.042C75.7779 107.895 74.574 86.2503 68.5977 65.5826C72.2946 60.5651 76.9642 56.2581 82.3585 52.8907L81.9564 53.356C92.5451 48.0677 104.564 42.5678 116.001 45.9947C124.937 48.66 131.013 56.0214 138.34 61.5635C144.46 66.6618 151.645 70.4831 159.427 72.7792C167.21 75.0752 175.415 75.7944 183.51 74.89C186.95 86.059 190.48 104.505 192.803 115.25L198.924 92.5319C199.478 91.1463 199.956 89.7342 200.354 88.3012V87.8782C201.024 85.7205 201.649 83.6475 202.543 81.3629C204.014 82.3263 205.815 82.7286 207.586 82.4896C209.357 82.2506 210.967 81.3879 212.095 80.0736C213.224 78.7594 213.787 77.0905 213.673 75.4002C213.558 73.7099 212.775 72.1227 211.479 70.9556C210.327 69.8505 209.001 68.9226 207.547 68.2056C209.139 69.2575 210.988 69.9069 212.92 70.092C214.851 70.2771 216.8 69.9918 218.582 69.2633C220.32 68.4482 221.731 67.12 222.601 65.4792C223.471 63.8384 223.755 61.974 223.408 60.1674C223.056 58.9623 222.376 57.8662 221.435 56.9897C220.493 56.1133 219.325 55.4873 218.046 55.1752C223.077 54.8128 227.881 53.0461 231.852 50.0984C234.533 48.2792 236.9 45.2755 235.381 42.1871Z" fill="#263238"/>
<path d="M76.193 39.5625C74.9292 40.8838 73.7787 42.2985 72.7526 43.7932C70.1894 47.8838 68.7887 52.5334 68.6869 57.289C68.4997 60.5553 68.6796 63.8313 69.2232 67.0618C69.804 70.5309 70.6974 74.2539 71.6357 78.1461C72.6685 82.2166 73.4444 86.3417 73.959 90.4996C74.1387 92.7245 74.1387 94.9592 73.959 97.1841C74.0002 99.5497 73.3838 101.884 72.1718 103.953C71.5968 104.795 70.7997 105.479 69.8594 105.939C68.919 106.399 67.868 106.619 66.8105 106.576C64.7996 106.532 62.8633 105.846 61.315 104.63C58.6856 102.104 56.8055 98.9669 55.8643 95.5341H56.7132C55.9708 98.5066 54.7663 101.358 53.139 103.995C51.6251 106.484 49.1635 108.331 46.2585 109.157C44.8724 109.539 43.4001 109.539 42.014 109.157C40.7279 108.755 39.6043 107.987 38.7972 106.957C38.0267 106.029 37.5468 104.915 37.4122 103.742C37.278 102.641 37.5633 101.53 38.2165 100.611L38.6632 100.907C36.7192 103.835 34.1466 106.343 31.1125 108.268C30.306 108.764 29.4707 109.216 28.6106 109.622L27.6724 110.003C27.9246 109.792 28.2113 109.62 28.5213 109.495C29.0574 109.157 29.9063 108.691 30.9339 108.015C33.8382 106.022 36.298 103.506 38.1718 100.611L38.6632 100.907C38.1436 101.802 37.9292 102.827 38.0492 103.842C38.1692 104.857 38.6178 105.812 39.3334 106.576C40.0709 107.488 41.0836 108.167 42.2375 108.522C43.4933 108.861 44.8239 108.861 46.0798 108.522C48.8562 107.754 51.2202 106.015 52.6922 103.657C54.2425 101.003 55.3858 98.1544 56.0878 95.1956L56.4451 93.9264L56.9367 95.1956C57.8526 98.3969 59.6396 101.314 62.1192 103.657C63.523 104.746 65.2649 105.37 67.0786 105.434C67.9657 105.465 68.8459 105.274 69.6303 104.881C70.4147 104.487 71.0756 103.904 71.5464 103.192C72.6655 101.262 73.2352 99.0893 73.1995 96.8879C73.3786 94.7053 73.3786 92.5129 73.1995 90.3304C72.728 86.2003 71.9819 82.1026 70.9655 78.0615C70.0273 74.1693 69.1785 70.4463 68.6423 66.8926C68.1248 63.6168 67.975 60.2984 68.1955 56.9928C68.3871 52.1578 69.9287 47.4573 72.6633 43.3701C73.6205 41.9327 74.8118 40.6476 76.193 39.5625Z" fill="#455A64"/>
<path d="M205.938 58.2639L205.67 58.56L204.777 59.4062C204.375 59.7446 203.883 60.21 203.258 60.6754C202.551 61.2438 201.804 61.7667 201.024 62.2407C196.04 65.3164 190.33 67.1768 184.403 67.6559C175.567 68.4127 166.688 66.7225 158.847 62.7907C149.389 57.8891 141.076 51.2261 134.408 43.2027C130.745 38.9721 127.617 34.7414 124.311 30.7223C121.248 26.8316 117.588 23.3952 113.454 20.5264C109.77 17.8853 105.432 16.1813 100.855 15.5766C98.7983 15.3616 96.7188 15.4472 94.6895 15.8304C92.8079 16.1992 90.9889 16.8114 89.2835 17.6496C84.079 20.2417 80.0925 24.5903 78.1139 29.8339C77.4832 31.7711 77.1081 33.7747 76.9969 35.7991C76.9969 35.7991 76.9969 35.7991 76.9969 35.4184V34.2338C77.0979 32.7025 77.3674 31.1853 77.8011 29.707C78.6117 27.4135 79.8033 25.257 81.3307 23.3187C83.3855 20.7423 86.0077 18.6202 89.0154 17.0996C90.7589 16.2129 92.6231 15.5581 94.5554 15.1536C96.6675 14.7151 98.8422 14.615 100.989 14.8574C105.715 15.4451 110.205 17.1632 114.035 19.8496C118.207 22.783 121.922 26.258 125.071 30.1723C128.422 34.1491 131.549 38.6336 135.213 42.6105C141.768 50.5611 149.961 57.1677 159.294 62.0292C166.971 65.9325 175.671 67.6652 184.359 67.0213C190.208 66.6222 195.867 64.8797 200.845 61.9446C204.285 59.8293 205.849 57.9678 205.938 58.2639Z" fill="#455A64"/>
<path d="M207.1 41.0469C206.692 41.4519 206.26 41.8333 205.804 42.1892C204.575 43.1805 203.26 44.072 201.872 44.8544C199.86 46.0622 197.737 47.0959 195.528 47.9429C192.794 48.9607 189.968 49.7395 187.084 50.2697C184.136 50.7783 181.144 51.0192 178.148 50.9889C175.764 50.9632 173.387 50.7367 171.044 50.312C169.449 50.0615 167.879 49.6793 166.353 49.1697C165.281 48.8313 164.7 48.6198 164.745 48.5352C164.79 48.4505 167.158 49.1274 171.134 49.6774C173.456 50.001 175.801 50.1566 178.148 50.1428C181.027 50.1486 183.899 49.8936 186.727 49.3813C189.538 48.8527 192.302 48.1171 194.992 47.1813C197.198 46.3814 199.334 45.4195 201.381 44.3045C204.821 42.443 206.742 41.0469 207.1 41.0469Z" fill="#455A64"/>
<path d="M582.799 521.098L598.258 518.771C603.054 514.191 608.426 510.184 614.252 506.841C623.188 501.933 630.917 501.933 633.151 505.995C634.236 508.201 634.491 510.693 633.873 513.056C633.255 515.419 631.802 517.51 629.756 518.983C625.288 523.002 607.774 527.444 606.791 534.425C605.808 541.405 661.879 564.039 661.879 564.039L617.559 611.803L553.222 579.397L550.273 574.404L549.603 561.289L582.799 521.098Z" fill="#AE7461"/>
<path d="M134.007 652.797L153.486 870.253L146.918 908.032C146.918 908.032 67.3019 1124.64 68.955 1214.29L162.109 1210.06C162.109 1210.06 253.029 964.681 260.178 937.732C267.326 910.782 303.962 729.456 303.962 729.456L364.367 872.749L366.065 906.129L331.261 1113.98L439.427 1119.35C439.427 1119.35 483.703 883.452 479.324 852.822C474.946 822.192 403.371 582.991 403.371 582.991L366.467 552.488L155.988 586.334L134.007 652.797Z" fill="#263238"/>
<path d="M429.418 1055.98L426.023 1143.17C426.023 1143.17 513.637 1175.91 514.575 1192.12L345.2 1191.78L344.798 1055.68L429.418 1055.98Z" fill="#263238"/>
<path d="M373.705 1135.68C372.043 1136.23 370.645 1137.33 369.767 1138.77C368.889 1140.22 368.59 1141.92 368.924 1143.55C369.289 1145.16 370.31 1146.57 371.765 1147.48C373.221 1148.38 374.993 1148.7 376.698 1148.38C378.482 1147.79 379.978 1146.6 380.907 1145.05C381.836 1143.49 382.134 1141.66 381.747 1139.91C380.585 1136.74 376.073 1134.2 373.079 1135.68" fill="#E0E0E0"/>
<path d="M345.2 1191.78L345.692 1178.03L508.008 1183.32C508.008 1183.32 515.558 1186.62 514.665 1191.78H345.2Z" fill="#455A64"/>
<path d="M428.838 1142.33C428.838 1143.17 424.683 1143.51 420.617 1146.18C416.551 1148.84 414.362 1152.27 413.603 1151.93C412.843 1151.59 414.094 1146.85 419.053 1143.72C424.013 1140.59 429.017 1141.56 428.838 1142.33Z" fill="white"/>
<path d="M446.619 1149.73C446.619 1150.53 443.224 1151.93 440.409 1155.4C437.595 1158.87 436.746 1162.59 435.941 1162.55C435.137 1162.51 434.601 1157.85 438.175 1153.58C441.75 1149.31 446.575 1148.93 446.619 1149.73Z" fill="white"/>
<path d="M456.672 1171.01C455.913 1171.01 454.751 1167.03 456.896 1162.55C459.04 1158.07 462.927 1156.2 463.24 1156.92C463.553 1157.64 461.23 1160.01 459.532 1163.73C457.834 1167.46 457.298 1170.93 456.672 1171.01Z" fill="white"/>
<path d="M427.408 1122.36C427.051 1123.12 423.253 1121.98 418.472 1122.36C413.692 1122.74 410.162 1124.13 409.537 1123.42C408.911 1122.7 412.619 1119.78 418.16 1119.48C423.7 1119.18 427.81 1121.72 427.408 1122.36Z" fill="white"/>
<path d="M153.039 1147.74L153.709 1247.88L178.327 1326.91C178.749 1328.26 178.873 1329.68 178.691 1331.07C178.51 1332.47 178.027 1333.82 177.273 1335.03C176.519 1336.25 175.51 1337.3 174.308 1338.13C173.106 1338.96 171.737 1339.55 170.285 1339.85C168.597 1340.21 166.844 1340.18 165.172 1339.76C163.501 1339.34 161.96 1338.54 160.679 1337.44C144.104 1323.23 83.3861 1270.73 83.7882 1263.36C84.2349 1254.9 75.7014 1157.81 75.7014 1157.81L153.039 1147.74Z" fill="#263238"/>
<path d="M170.285 1339.86L83.5648 1256.64V1260.87C83.6859 1264.54 85.1737 1268.04 87.7646 1270.77C94.6897 1278.05 114.303 1297.76 160.233 1337.45C161.551 1338.59 163.145 1339.4 164.874 1339.82C166.604 1340.24 168.416 1340.26 170.151 1339.86H170.285Z" fill="#455A64"/>
<g opacity="0.6">
<path d="M104.34 1223.72C105.66 1224.6 106.593 1225.91 106.963 1227.4C107.333 1228.89 107.116 1230.46 106.351 1231.8C105.484 1233.09 104.131 1234.01 102.569 1234.38C101.007 1234.75 99.3544 1234.54 97.9512 1233.79C96.5628 1232.87 95.5809 1231.5 95.1935 1229.94C94.806 1228.38 95.0402 1226.74 95.8513 1225.33C96.8923 1224.08 98.407 1223.26 100.075 1223.05C101.743 1222.83 103.433 1223.24 104.787 1224.19" fill="white"/>
</g>
<path d="M144.774 1296.79C145.399 1297.04 147.633 1291.71 153.71 1288.75C157.534 1287.17 161.646 1286.31 165.817 1286.21C165.817 1285.96 164.566 1285.19 162.064 1284.94C158.799 1284.7 155.528 1285.34 152.637 1286.8C149.733 1288.22 147.328 1290.41 145.712 1293.11C144.551 1295.22 144.55 1296.7 144.774 1296.79Z" fill="white"/>
<path d="M152.727 1309.99C155.694 1308.26 158.784 1306.74 161.975 1305.42C165.363 1304.69 168.795 1304.17 172.251 1303.85C170.589 1302.94 168.721 1302.42 166.803 1302.32C164.885 1302.22 162.97 1302.56 161.216 1303.3C155.05 1305.21 152.146 1309.69 152.727 1309.99Z" fill="white"/>
<path d="M130.253 1279.99C134.602 1277.01 139.187 1274.35 143.97 1272.04C149.056 1270.37 154.269 1269.07 159.562 1268.14C153.992 1267.26 148.271 1267.9 143.076 1270C137.881 1272.1 133.431 1275.57 130.253 1279.99Z" fill="white"/>
<path d="M127.349 1249.58C127.662 1250.17 133.426 1247.67 141.021 1247.21C148.616 1246.74 154.693 1248.31 154.916 1247.67C150.702 1245.24 145.719 1244.3 140.842 1245.01C135.921 1245 131.152 1246.62 127.349 1249.58Z" fill="white"/>
<path d="M126.366 1220.17C130.935 1218.65 135.698 1217.71 140.529 1217.38C145.358 1217.74 150.11 1218.73 154.648 1220.34C154.648 1220.08 153.62 1218.9 151.163 1217.63C147.872 1216.06 144.238 1215.24 140.552 1215.24C136.866 1215.24 133.231 1216.06 129.941 1217.63C127.439 1218.73 126.232 1219.96 126.366 1220.17Z" fill="white"/>
<path d="M30.487 275.256C30.487 275.256 -26.165 307.578 14.9837 384.999C65.1573 479.766 112.918 613.074 129.315 621.916C136.017 625.512 167.515 610.577 167.515 610.577L192.49 566.748L126.232 402.852L82.9839 308.086L30.487 275.256Z" fill="#455A64"/>
<path d="M71.8145 250.121L30.4872 275.251L140.083 458.439L124.222 622.08L149.018 635.365L404.98 601.773L413.29 590.816L385.187 513.945L347.747 427.64C347.747 427.64 310.709 349.203 288.861 315.781C267.013 282.359 243.513 248.598 243.513 248.598L180.963 244.368L173.279 236.287C173.279 236.287 163.807 252.533 138.072 254.014C117.118 255.24 72.6634 244.495 72.6634 244.495L71.8145 250.121Z" fill="#455A64"/>
<path d="M582.799 521.099C582.799 521.099 432.636 407.21 420.394 393.925C408.152 380.641 303.739 276.525 303.739 276.525C303.739 276.525 265.539 241.833 243.602 248.602C216.795 257.064 270.409 379.33 270.409 379.33C270.409 379.33 380.854 466.143 398.77 482.642C416.685 499.142 524.315 564.717 524.315 564.717L549.826 561.375L582.799 521.099Z" fill="#455A64"/>
<path d="M95.7618 348.486C96.2086 349.169 96.5827 349.892 96.8788 350.644C97.6383 352.336 98.5766 354.409 99.6935 356.99C102.106 362.532 105.636 370.528 110.059 380.385C118.995 400.1 131.683 426.923 145.801 456.876C159.92 486.829 172.117 513.989 180.204 534C184.269 543.985 187.397 552.15 189.407 557.819C190.301 560.484 191.06 562.642 191.686 564.377C192.001 565.123 192.211 565.905 192.311 566.703C191.848 566.036 191.487 565.309 191.239 564.546L188.559 558.115C186.28 552.531 182.929 544.493 178.685 534.55C170.196 514.709 157.775 487.59 143.657 457.764C129.539 427.938 116.85 400.862 108.585 380.978C104.34 371.036 101.034 362.955 98.8894 357.286C97.9064 354.663 97.1469 352.505 96.4767 350.813C96.1218 350.074 95.881 349.29 95.7618 348.486Z" fill="#263238"/>
<path d="M279.568 302.162C279.568 302.162 280.06 302.501 280.953 303.389C282.166 304.708 283.257 306.124 284.215 307.62C286.851 311.258 290.336 316.8 294.357 323.696C302.443 337.53 312.853 356.991 323.934 378.695C335.014 400.398 344.62 420.24 351.411 434.624C354.806 441.858 357.532 447.697 359.319 451.8C360.347 453.867 361.213 456.002 361.91 458.189C360.548 456.289 359.395 454.262 358.47 452.139L349.936 435.216L321.834 379.498C310.798 357.795 300.567 338.25 292.927 324.288C289.085 317.266 285.868 311.596 283.455 307.916C281.042 304.235 279.389 302.331 279.568 302.162Z" fill="#263238"/>
<g opacity="0.3">
<path d="M130.03 426.038C130.03 426.038 119.352 369.644 125.562 336.687C131.772 303.73 149.465 255.754 149.465 255.754L180.74 243.062L343.592 317.987L355.655 331.822L334.075 396.762L350.159 515.22L130.03 426.038Z" fill="black"/>
</g>
<path d="M169.213 327.078C181.41 114.953 307.224 0.767682 466.948 9.01746C627.567 17.4788 738.592 143.722 726.395 355.931C714.198 568.141 589.322 682.284 428.659 673.992C268.935 665.657 156.971 539.245 169.213 327.078ZM575.025 348.02C583.424 202.02 534.815 138.729 459.711 134.837C385.411 130.987 329.92 188.947 321.521 334.947C313.121 480.947 361.731 544.28 435.897 548.087C511.135 551.98 566.625 494.062 575.025 348.02Z" fill="#FF725E"/>
<g opacity="0.3">
<path d="M169.213 327.078C181.41 114.953 307.224 0.767682 466.948 9.01746C627.567 17.4788 738.592 143.722 726.395 355.931C714.198 568.141 589.322 682.284 428.659 673.992C268.935 665.657 156.971 539.245 169.213 327.078ZM575.025 348.02C583.424 202.02 534.815 138.729 459.711 134.837C385.411 130.987 329.92 188.947 321.521 334.947C313.121 480.947 361.731 544.28 435.897 548.087C511.135 551.98 566.625 494.062 575.025 348.02Z" fill="black"/>
</g>
<path d="M123.15 327.291C135.392 115.166 261.161 0.980574 420.885 9.23035C581.727 17.6917 692.573 143.892 680.376 356.144C668.179 568.396 543.259 682.497 382.641 674.205C222.871 665.87 110.953 539.416 123.15 327.291ZM528.962 348.444C537.406 202.444 488.751 139.111 413.647 135.262C339.348 131.412 283.857 189.329 275.458 335.372C267.058 481.414 315.668 544.662 389.879 548.512C465.072 552.193 520.562 494.233 528.783 348.233L528.962 348.444Z" fill="#D74339"/>
<path d="M291.988 648.187L264.243 632.195C264.243 632.195 235.873 614.468 234.13 611.761C232.023 607.408 230.825 602.71 230.601 597.927C230.601 594.034 243.379 585.235 244.808 577.789C246.238 570.343 237.794 562.981 234.756 561.712C231.718 560.443 228.59 564.885 227.92 568.185C227.25 571.485 222.156 576.308 214.159 578C206.162 579.693 195.171 589.55 195.171 589.55L171.134 632.364C175.244 639.683 224.48 657.114 225.999 657.96C227.518 658.806 280.015 659.737 285.242 657.96C286.381 657.771 287.466 657.363 288.431 656.76C289.397 656.158 290.221 655.375 290.853 654.459C291.486 653.542 291.913 652.513 292.108 651.434C292.303 650.355 292.263 649.25 291.988 648.187Z" fill="#AE7461"/>
<path d="M682.923 559.003C683.191 566.153 668.09 565.688 668.09 565.688C669.877 569.199 662.058 577.66 656.741 575.799C658.126 578.295 659.556 579.141 659.288 581.975C659.197 583.406 658.744 584.795 657.966 586.025C657.188 587.255 656.109 588.289 654.82 589.041C653.529 589.767 652.022 590.074 650.53 589.913C649.037 589.753 647.641 589.134 646.555 588.152C647.073 590.291 646.894 592.528 646.041 594.568C645.187 596.608 643.699 598.354 641.774 599.575C639.408 600.983 636.574 601.51 633.821 601.056C632.453 600.822 631.137 600.364 629.934 599.702C629.456 599.507 629.018 599.235 628.639 598.898C628.481 598.714 628.373 598.496 628.326 598.264C627.969 597.248 627.834 596.191 627.432 595.217L626.896 594.075C626.029 592.421 624.932 590.885 623.635 589.506C622.964 588.913 622.337 588.277 621.758 587.602C621.504 587.098 621.294 586.575 621.133 586.037C619.292 582.841 616.766 580.046 613.716 577.83C610.384 575.402 607.869 572.11 606.478 568.353C605.868 566.462 606.058 564.42 607.008 562.659C607.959 560.899 609.595 559.557 611.572 558.919C610.52 558.146 609.799 557.039 609.545 555.802C609.29 554.564 609.518 553.282 610.187 552.192C610.909 551.133 611.902 550.263 613.073 549.664C614.245 549.065 615.557 548.756 616.888 548.765C619.565 548.824 622.175 549.569 624.439 550.923C623.347 549.857 622.737 548.43 622.737 546.946C622.737 545.461 623.347 544.035 624.439 542.969C625.585 541.965 626.979 541.249 628.494 540.886C630.008 540.524 631.594 540.527 633.107 540.896C636.145 541.711 638.953 543.156 641.327 545.127C643.785 546.903 654.15 554.349 656.875 555.83L663.309 550.076L664.158 549.315C669.564 551.05 671.306 551.303 675.953 553.08C679.661 554.349 682.789 556.042 682.923 559.003Z" fill="#AE7461"/>
<path d="M624.215 608.672C623.417 609.631 622.408 610.415 621.259 610.97C620.11 611.525 618.847 611.838 617.558 611.887C613.865 610.938 610.581 608.91 608.176 606.091C608.176 606.091 613.671 599.491 613.671 599.491L615.057 597.883C615.369 595.98 612.51 593.653 611.616 592.088C610.914 590.535 610.876 588.786 611.509 587.207C612.142 585.629 613.398 584.345 615.012 583.626C616.645 583.007 618.431 582.837 620.162 583.136C621.893 583.436 623.5 584.192 624.796 585.318C627.4 587.616 628.995 590.758 629.264 594.118C629.55 596.744 629.248 599.397 628.378 601.904C627.508 604.412 626.09 606.718 624.215 608.672Z" fill="#AE7461"/>
<path d="M647.493 588.788C642.363 583.012 636.647 577.726 630.426 573.008C624.713 567.733 618.457 563.014 611.75 558.92C622.542 570.019 634.521 580.029 647.493 588.788Z" fill="#6F4439"/>
<path d="M657.322 576.181C653.15 570.552 648.034 565.608 642.176 561.543C636.811 556.889 630.685 553.089 624.037 550.289C629.294 554.93 634.828 559.28 640.612 563.32C645.897 567.929 651.477 572.224 657.322 576.181Z" fill="#6F4439"/>
<path d="M666.972 563.869C663.422 559.275 659.016 555.332 653.971 552.235C649.436 548.543 644.421 545.415 639.049 542.928C642.942 547.215 647.454 550.96 652.452 554.054C656.966 557.739 661.826 561.024 666.972 563.869Z" fill="#6F4439"/>
<path d="M626.628 604.057C626.628 604.268 628.281 603.338 629.22 600.926C630.243 597.764 629.922 594.349 628.326 591.407C626.897 588.533 624.894 585.947 622.429 583.792C620.105 582.015 617.961 582.904 618.229 583.2C618.497 583.496 619.837 583.411 621.267 584.977C623.146 587.286 624.777 589.766 626.137 592.38C627.47 594.889 627.969 597.721 627.567 600.503C627.075 602.661 626.36 603.719 626.628 604.057Z" fill="#6F4439"/>
</svg>
