<svg width="756" height="1430" viewBox="0 0 756 1430" fill="none" xmlns="http://www.w3.org/2000/svg">
<path d="M680.583 500.403C680.583 500.403 648.861 499.472 631.035 516.903L656.769 560.605L705.647 551.34L710.115 536.702L717.934 508.907L680.583 500.403Z" fill="#FFBF9D"/>
<path d="M358.945 462.242C358.945 462.242 374.403 471.55 378.29 481.576C382.177 491.603 470.729 551.297 470.729 551.297L482.659 548.251L625.137 506.876L660.88 567.797L484.535 630.495C479.397 631.553 354.075 592.885 354.075 592.885L358.945 462.242Z" fill="#455A64"/>
<path d="M697.516 602.063L589.037 569.318L544.359 701.78L393.972 656.385L438.65 523.881L79.8845 415.533L112.946 317.298L561.783 12.0137L723.787 60.8354L304.571 352.327L483.284 406.395L523.048 288.318L668.698 332.274L628.935 450.352L737.413 483.097L697.516 602.063Z" fill="#FF725E"/>
<g opacity="0.3">
<path d="M697.516 602.065L589.037 569.32L544.359 701.781L393.972 656.386L438.65 523.883L79.8845 415.535L112.946 317.3L561.783 12.0156L723.787 60.8373L304.571 352.329L483.284 406.397L523.048 288.32L668.698 332.276L628.935 450.354L737.413 483.099L697.516 602.065Z" fill="black"/>
</g>
<path d="M656.501 590.219L547.978 557.473L503.3 689.935L352.958 644.667L397.636 512.163L38.8252 403.52L71.9317 305.284L520.724 0L682.549 48.8641L263.601 340.483L442.314 394.508L482.078 276.473L627.684 320.43L587.92 438.507L696.577 471.21L656.501 590.219Z" fill="#D74339"/>
<g opacity="0.3">
<path d="M374.716 505.056L373.286 463.638L376.95 443.246C376.95 443.246 418.277 444.346 427.079 430.131C433.609 418.448 439.008 406.228 443.208 393.621L391.783 382.367L354.075 438.17L342.682 465.5L360.553 501.206L374.716 505.056Z" fill="black"/>
</g>
<path d="M306.135 329.736C306.609 313.306 308.567 296.944 311.988 280.83C315.462 264.61 323.139 249.462 334.327 236.747C336.069 234.885 349.339 222.87 351.707 224.055C353.404 224.858 343.352 236.747 343.62 238.65C345.89 255.66 342.649 272.922 334.327 288.149C326.598 302.994 317.158 316.984 306.18 329.863" fill="#263238"/>
<path d="M362.563 448.068C367.076 437.364 370.829 428.903 370.829 428.903C370.829 428.903 411.709 439.437 429.268 403.519C437.712 386.173 452.099 349.07 464.742 315.352C471.282 297.86 470.629 278.678 462.913 261.62C455.198 244.563 440.986 230.88 423.102 223.293L419.394 221.728C378.648 207.09 342.726 231.712 328.385 270.719L273.698 405.592L288.666 446.841C291.28 454.073 296.18 460.37 302.701 464.877C309.223 469.383 317.049 471.882 325.121 472.035C333.193 472.187 341.118 469.985 347.824 465.729C354.53 461.472 359.691 455.365 362.608 448.237L362.563 448.068Z" fill="#FFBF9D"/>
<path d="M370.829 428.902C353.213 421.375 338.239 409.235 327.67 393.914C327.67 393.914 327.402 425.348 367.031 438.209L370.829 428.902Z" fill="#FF9A6C"/>
<path d="M427.57 341.202C426.95 342.547 425.8 343.61 424.364 344.163C422.928 344.716 421.321 344.717 419.885 344.164C419.164 343.928 418.5 343.557 417.933 343.073C417.367 342.588 416.909 342.001 416.588 341.345C416.267 340.689 416.088 339.979 416.064 339.257C416.039 338.534 416.169 337.815 416.445 337.141C417.066 335.785 418.221 334.712 419.665 334.151C421.109 333.59 422.727 333.585 424.175 334.137C424.894 334.381 425.554 334.76 426.116 335.25C426.678 335.74 427.131 336.332 427.448 336.991C427.764 337.649 427.938 338.361 427.959 339.085C427.98 339.808 427.848 340.528 427.57 341.202Z" fill="#263238"/>
<path d="M449.462 326.689C448.435 327.069 445.665 322.458 439.812 319.962C433.959 317.466 428.33 318.439 428.017 317.466C427.704 316.493 429.089 316.112 431.591 315.647C434.909 315.06 438.338 315.443 441.42 316.747C444.479 318.042 447.028 320.218 448.703 322.966C449.864 325.039 449.909 326.519 449.462 326.689Z" fill="#263238"/>
<path d="M377.977 322.206C377.357 323.551 376.207 324.614 374.771 325.167C373.336 325.72 371.728 325.72 370.293 325.168C369.571 324.932 368.907 324.561 368.341 324.077C367.774 323.592 367.316 323.005 366.995 322.349C366.674 321.693 366.496 320.983 366.471 320.261C366.447 319.538 366.576 318.819 366.852 318.145C367.473 316.789 368.629 315.716 370.072 315.155C371.516 314.594 373.134 314.589 374.582 315.141C375.301 315.385 375.961 315.764 376.524 316.254C377.086 316.744 377.538 317.336 377.855 317.995C378.171 318.653 378.345 319.365 378.366 320.089C378.387 320.812 378.255 321.532 377.977 322.206Z" fill="#263238"/>
<path d="M393.883 305.493C392.9 305.874 390.13 301.262 384.233 298.766C378.335 296.27 372.75 297.243 372.437 296.313C372.125 295.382 373.51 294.916 376.012 294.451C379.334 293.858 382.769 294.257 385.841 295.593C388.946 296.92 391.516 299.161 393.168 301.982C394.33 303.843 394.33 305.324 393.883 305.493Z" fill="#263238"/>
<path d="M391.783 356.176C395.295 356.603 398.743 357.412 402.059 358.588C403.623 359.096 405.186 359.392 405.901 358.588C406.726 357.184 407.07 355.573 406.884 353.976C406.884 349.746 407.331 345.727 407.554 341.284C408.671 323.304 410.19 308.751 410.95 308.793C411.709 308.835 411.441 323.473 410.325 341.454C410.012 345.896 409.744 349.915 409.431 354.146C409.561 356.248 408.913 358.327 407.599 360.026C407.145 360.432 406.599 360.734 406.003 360.91C405.407 361.086 404.776 361.131 404.159 361.042C403.223 360.906 402.308 360.664 401.433 360.322C398.043 359.335 394.8 357.942 391.783 356.176Z" fill="#263238"/>
<path d="M402.103 286.542C400.584 287.599 395.714 283.58 388.923 280.323C382.132 277.065 375.967 275.457 375.967 273.723C375.967 272.877 377.843 272.158 380.837 272.115C384.719 272.171 388.532 273.099 391.961 274.823C395.488 276.476 398.55 278.897 400.897 281.888C402.505 284.215 402.908 286.034 402.103 286.542Z" fill="#263238"/>
<path d="M456.879 306.511C455.27 307.315 451.83 304.311 447.005 302.28C442.18 300.249 437.623 299.319 437.31 297.584C437.31 296.78 438.427 295.765 440.795 295.342C443.849 294.941 446.96 295.413 449.73 296.696C452.56 297.962 454.902 300.033 456.432 302.618C457.683 304.522 457.638 306.215 456.879 306.511Z" fill="#263238"/>
<path d="M318.823 298.642C318.287 298.092 296.038 280.154 285.181 305.242C274.324 330.33 303.052 335.449 303.543 334.856C304.035 334.264 318.823 298.642 318.823 298.642Z" fill="#FFBF9D"/>
<path d="M299.567 322.121C299.567 322.121 298.942 322.121 298.048 322.121C296.757 322.144 295.506 321.689 294.563 320.852C293.303 319.157 292.536 317.178 292.34 315.113C292.144 313.048 292.526 310.971 293.446 309.09C294.326 306.917 295.699 304.953 297.468 303.337C298.049 302.646 298.802 302.102 299.66 301.755C300.518 301.408 301.453 301.268 302.382 301.348C302.971 301.409 303.517 301.67 303.919 302.082C304.322 302.494 304.553 303.03 304.571 303.591C304.571 304.437 304.258 304.86 304.571 304.944C304.884 305.029 305.331 304.944 305.554 303.633C305.663 302.965 305.538 302.281 305.197 301.687C304.691 300.879 303.874 300.288 302.918 300.037C301.738 299.826 300.521 299.901 299.38 300.256C298.24 300.612 297.213 301.235 296.395 302.068C294.379 303.804 292.845 305.983 291.927 308.414C290.837 310.597 290.447 313.035 290.804 315.426C291.161 317.817 292.251 320.056 293.938 321.867C294.559 322.335 295.282 322.665 296.055 322.833C296.828 323.001 297.631 323.004 298.406 322.84C299.344 322.713 299.612 322.206 299.567 322.121Z" fill="#FF9A6C"/>
<path d="M465.1 266.956C470.327 266.321 463 248.257 454.332 239.711C441.242 226.807 418.59 213.354 402.238 211.746C382.49 209.8 364.261 212.55 348.892 224.438C333.759 236.771 322.351 252.683 315.83 270.552C313.34 275.861 312.399 281.705 313.105 287.475C314.49 294.413 320.119 300.632 316.545 308.205C315.866 309.558 315.477 311.024 315.401 312.52C315.324 314.016 315.561 315.511 316.098 316.92C318.868 323.647 326.776 321.151 331.467 317.724C341.43 310.066 347.06 298.559 352.332 287.432C356.533 279.741 359.385 271.453 360.776 262.895C361.223 258.199 360.776 253.46 361.536 248.807C361.768 246.453 362.531 244.175 363.771 242.124C365.012 240.073 366.703 238.298 368.729 236.918C369.703 236.428 370.719 236.017 371.767 235.692C376.762 234.017 382.14 233.64 387.342 234.6C392.543 235.559 397.378 237.821 401.344 241.149C414.211 251.81 436.595 268.944 445.307 266.533C451.325 265.367 457.018 263.018 462.017 259.637L465.1 266.956Z" fill="#263238"/>
<path d="M392.587 376.063C392.587 376.529 391.068 376.994 388.611 376.656C385.402 376.153 382.42 374.771 380.033 372.679C377.639 370.602 375.932 367.913 375.118 364.937C374.582 362.652 375.118 361.171 375.431 361.129C375.744 361.087 377.977 365.952 382.713 369.929C387.449 373.906 392.632 375.006 392.587 376.063Z" fill="#263238"/>
<path d="M405.097 158.438C400.301 167.582 394.822 176.39 388.7 184.794C383.225 193.578 377.089 201.977 370.337 209.925C375.127 200.791 380.607 191.996 386.734 183.61C392.239 174.831 398.374 166.42 405.097 158.438Z" fill="#FF9A6C"/>
<path d="M289.113 938.399L372.214 1013.11C372.214 1013.11 332.004 1268.18 339.063 1268.64L438.338 1275.33C438.338 1275.33 498.206 980.113 493.694 962.81C489.181 945.507 344.022 809.322 344.022 809.322L342.235 785.926L300.952 780.723L289.113 938.399Z" fill="#263238"/>
<path d="M132.962 836.272C141.004 853.491 154.408 873.925 157.178 891.059L207.798 1065.53L27.5215 1272.83L107.942 1336.67C107.942 1336.67 325.123 1114.73 332.674 1087.4C338.705 1065.62 314.445 846.256 314.445 846.256L322.397 783.642L134.749 741.336V741.632C127.202 756.335 123.132 772.42 122.823 788.765C122.514 805.11 125.974 821.323 132.962 836.272Z" fill="#263238"/>
<path d="M149.85 1278.29L91.7688 1341.75C91.7688 1341.75 136.67 1416.51 127.065 1429.2L0.133789 1331.89L86.7202 1229.51L149.85 1278.29Z" fill="#263238"/>
<path d="M57.1433 1306.26C55.5493 1305.7 53.7967 1305.71 52.2109 1306.29C50.6251 1306.86 49.3137 1307.96 48.5203 1309.39C47.7647 1310.8 47.6271 1312.44 48.1369 1313.95C48.6466 1315.47 49.7631 1316.73 51.2457 1317.47C52.9179 1317.98 54.7286 1317.93 56.3617 1317.31C57.9949 1316.69 59.3468 1315.55 60.1813 1314.08C60.4882 1313.31 60.6309 1312.49 60.6013 1311.67C60.5717 1310.85 60.3703 1310.04 60.0089 1309.3C59.6474 1308.55 59.133 1307.88 58.4954 1307.32C57.8578 1306.76 57.1097 1306.33 56.2944 1306.04" fill="#E0E0E0"/>
<path d="M0 1331.85L8.93564 1321.87L127.199 1419.17C127.199 1419.17 130.773 1425.99 126.752 1429.45L0 1331.85Z" fill="#455A64"/>
<path d="M94.3156 1342.73C93.7347 1343.32 90.4287 1341.25 85.6481 1340.86C80.8676 1340.48 77.0699 1341.88 76.7125 1341.2C76.3551 1340.53 80.3314 1337.65 86.0502 1338.16C91.769 1338.67 94.8964 1342.35 94.3156 1342.73Z" fill="white"/>
<path d="M102.76 1358.55C102.402 1359.27 98.828 1358.25 94.4942 1359.27C90.1605 1360.28 87.167 1362.57 86.5415 1362.06C85.916 1361.55 88.5521 1357.83 94.0029 1356.6C99.4536 1355.37 103.385 1357.95 102.76 1358.55Z" fill="white"/>
<path d="M96.8621 1380.29C96.1919 1379.99 97.9791 1376.06 102.447 1374.03C106.915 1372 110.98 1372.76 110.802 1373.48C110.623 1374.2 107.317 1374.62 103.653 1376.44C99.9897 1378.26 97.5323 1380.8 96.8621 1380.29Z" fill="white"/>
<path d="M105.932 1326.99C105.217 1327.37 103.117 1324.32 99.4089 1321.87C95.7006 1319.41 91.9923 1318.44 92.1263 1317.64C92.2604 1316.83 96.5941 1316.66 101.062 1319.62C105.53 1322.59 106.691 1326.73 105.932 1326.99Z" fill="white"/>
<path d="M434.451 1223.8L433.378 1309.47C433.378 1309.47 520.188 1339.68 521.528 1355.54L355.147 1358.76L351.394 1225.2L434.451 1223.8Z" fill="#263238"/>
<path d="M381.73 1303.25C380.119 1303.83 378.78 1304.94 377.96 1306.38C377.14 1307.82 376.893 1309.48 377.263 1311.08C377.676 1312.65 378.72 1314 380.171 1314.86C381.623 1315.71 383.368 1315.99 385.037 1315.65C386.791 1315.04 388.247 1313.84 389.122 1312.28C389.996 1310.72 390.228 1308.9 389.772 1307.19C389.482 1306.4 389.029 1305.67 388.439 1305.04C387.85 1304.42 387.136 1303.91 386.339 1303.55C385.542 1303.19 384.677 1302.98 383.794 1302.93C382.911 1302.89 382.027 1303.01 381.194 1303.29" fill="#E0E0E0"/>
<path d="M355.102 1358.76V1345.27L514.559 1347.21C514.559 1347.21 522.065 1350.3 521.35 1355.67L355.102 1358.76Z" fill="#455A64"/>
<path d="M436.015 1308.58C436.015 1309.39 431.949 1309.81 428.017 1312.52C424.085 1315.23 422.03 1318.65 421.27 1318.36C420.511 1318.06 421.628 1313.32 426.453 1310.15C431.279 1306.98 436.149 1307.82 436.015 1308.58Z" fill="white"/>
<path d="M453.618 1315.44C453.841 1316.24 450.356 1317.68 447.675 1321.15C444.995 1324.62 444.28 1328.3 443.207 1328.25C442.135 1328.21 441.778 1323.69 445.218 1319.41C448.658 1315.14 453.573 1314.67 453.618 1315.44Z" fill="white"/>
<path d="M464.027 1336.12C463.268 1336.12 462.061 1332.27 464.027 1327.66C465.993 1323.05 469.791 1321.32 470.148 1321.99C470.506 1322.67 468.182 1325.08 466.619 1328.8C465.055 1332.53 464.653 1336 464.027 1336.12Z" fill="white"/>
<path d="M434.093 1289C433.78 1289.76 430.027 1288.7 425.426 1289C420.824 1289.29 417.294 1290.9 416.847 1290.23C416.401 1289.55 419.796 1286.54 425.202 1285.99C430.608 1285.44 434.451 1288.36 434.093 1289Z" fill="white"/>
<path d="M315.785 831.705C316.003 832.453 316.153 833.217 316.232 833.99C316.456 835.724 316.723 837.882 317.081 840.547C317.796 846.216 318.689 854.466 319.717 864.662C321.772 885.054 324.185 913.272 326.374 944.494C328.563 975.717 330.261 1003.72 331.646 1024.37C332.227 1034.35 332.718 1042.56 333.076 1048.61L333.344 1055.21C333.453 1055.97 333.453 1056.74 333.344 1057.5C333.096 1056.76 332.961 1055.99 332.942 1055.21C332.942 1053.48 332.495 1051.32 332.182 1048.65C331.646 1042.65 330.931 1034.44 330.038 1024.5C328.34 1004.06 326.329 975.801 324.095 944.621C321.861 913.441 319.628 885.392 318.153 864.789C317.349 854.847 316.724 846.639 316.232 840.632C316.232 837.967 315.919 835.767 315.785 834.032C315.678 833.26 315.678 832.477 315.785 831.705Z" fill="#455A64"/>
<path d="M755.061 498.372C758.591 504.718 744.741 510.429 744.741 510.429C747.957 512.925 744.741 523.713 739.111 524.179C741.479 525.913 743.177 526.083 744.249 528.748C744.813 530.067 745.042 531.493 744.918 532.911C744.793 534.329 744.32 535.7 743.534 536.913C742.695 538.09 741.472 538.975 740.053 539.433C738.633 539.891 737.095 539.898 735.671 539.451C737.103 541.176 737.951 543.272 738.103 545.461C738.254 547.651 737.702 549.833 736.52 551.72C735.035 553.952 732.725 555.581 730.042 556.289C728.706 556.648 727.314 556.777 725.931 556.67C725.401 556.688 724.871 556.616 724.367 556.459L723.787 556.035C723.027 555.232 722.402 554.343 721.597 553.624L720.614 552.82C719.086 551.681 717.403 550.742 715.61 550.028C714.72 549.788 713.854 549.476 713.019 549.097C712.569 548.735 712.151 548.339 711.768 547.913C708.628 545.836 705.068 544.396 701.313 543.682C697.207 542.812 693.444 540.862 690.457 538.055C689.057 536.592 688.312 534.672 688.378 532.699C688.445 530.725 689.318 528.854 690.814 527.479C689.481 527.251 688.285 526.562 687.459 525.546C686.633 524.529 686.236 523.257 686.346 521.979C686.512 520.728 687.008 519.538 687.789 518.517C688.57 517.496 689.611 516.679 690.814 516.14C693.26 515.086 695.965 514.691 698.633 514.998C697.169 514.482 695.975 513.448 695.3 512.115C694.625 510.781 694.522 509.252 695.014 507.848C695.587 506.463 696.524 505.239 697.736 504.291C698.947 503.344 700.394 502.704 701.939 502.433C705.026 501.912 708.196 502.027 711.232 502.772C714.27 503.406 727.003 505.902 730.131 506.114L733.303 498.287L733.75 497.272C739.424 496.595 741.077 496.13 746.126 495.833C749.834 495.495 753.453 495.749 755.061 498.372Z" fill="#FFBF9D"/>
<path d="M724.546 567.119C724.277 568.313 723.739 569.438 722.968 570.417C722.197 571.395 721.211 572.204 720.078 572.788C716.302 573.417 712.413 572.915 708.953 571.35C708.953 571.35 711.098 563.184 711.098 563.184L711.634 561.154C711.053 559.335 707.434 558.531 705.87 557.346C704.563 556.239 703.758 554.696 703.625 553.04C703.492 551.384 704.04 549.743 705.156 548.462C706.328 547.22 707.853 546.325 709.549 545.882C711.244 545.44 713.038 545.469 714.717 545.966C718.07 547.025 720.889 549.226 722.625 552.142C724.021 554.377 724.912 556.862 725.243 559.44C725.574 562.018 725.336 564.633 724.546 567.119Z" fill="#FFBF9D"/>
<path d="M736.475 539.705C729.225 536.584 721.668 534.146 713.913 532.428C706.353 530.002 698.555 528.301 690.635 527.352C697.89 530.499 705.465 532.938 713.243 534.628C720.779 537.081 728.566 538.782 736.475 539.705Z" fill="#FF9A6C"/>
<path d="M739.647 524.307C733.296 520.95 726.418 518.579 719.274 517.284C712.336 515.25 705.089 514.32 697.829 514.534C704.673 516.589 711.64 518.256 718.693 519.526C725.565 521.533 732.564 523.13 739.647 524.307Z" fill="#FF9A6C"/>
<path d="M742.73 509.284C737.44 506.578 731.67 504.815 725.707 504.081C719.88 502.585 713.874 501.803 707.836 501.754C713.312 504.041 719.104 505.58 725.037 506.323C730.826 507.823 736.749 508.814 742.73 509.284Z" fill="#FF9A6C"/>
<path d="M724.636 562C724.904 562 725.797 560.689 725.529 558.108C725.009 554.844 723.166 551.899 720.391 549.901C717.745 547.875 714.711 546.352 711.455 545.416C708.596 544.781 706.988 546.431 707.435 546.601C707.881 546.77 708.953 546.135 710.964 546.981C713.703 548.293 716.293 549.866 718.693 551.677C721.06 553.372 722.809 555.723 723.697 558.404C724.501 560.477 724.233 561.916 724.636 562Z" fill="#FF9A6C"/>
<path d="M352.69 637.306C352.613 635.197 352.748 633.086 353.092 631.002C353.539 626.771 354.119 620.806 354.789 614.079C356.219 599.653 357.872 579.684 358.81 557.6C359.749 535.516 359.704 515.293 359.525 500.994C359.525 494.055 359.302 488.302 359.213 483.817C359.04 481.719 359.04 479.612 359.213 477.514C359.691 479.571 359.945 481.669 359.972 483.775C360.33 488.006 360.687 493.675 361 500.951C361.67 515.463 361.893 535.516 361 557.685C360.106 579.853 358.14 599.991 356.308 614.206C355.37 621.44 354.521 627.236 353.851 631.129C353.677 633.218 353.288 635.287 352.69 637.306Z" fill="#263238"/>
<path d="M283.349 379.404C279.283 381.562 203.286 416.719 187.157 433.895C171.028 451.072 146.321 561.322 146.321 561.322L128.182 658.924L114.019 803.866L351.483 806.404C360.866 786.562 354.745 765.959 343.664 745.144L362.117 515.843L358.945 462.241L283.349 379.404Z" fill="#455A64"/>
<path d="M181.304 496.214C181.304 496.214 141.406 480.095 137.34 456.15C133.275 432.204 138.234 425.858 144.891 415.747C151.548 405.636 272.939 283.158 272.939 283.158L332.227 329.315L246.579 424.674C246.579 424.674 259.223 426.493 255.023 441.596" fill="#455A64"/>
<path d="M255.023 441.808C255.323 440.015 255.517 438.207 255.604 436.393C255.662 434.202 255.09 432.038 253.951 430.131C253.135 428.872 252.05 427.788 250.764 426.95C249.479 426.112 248.023 425.539 246.489 425.266H245.685L246.221 424.674L331.423 328.765V330.203L272.09 284.089H273.654L251.315 306.935L181.17 378.137C170.492 389.221 160.305 399.713 151.102 409.782C148.819 412.18 146.714 414.725 144.802 417.397C143.001 420.021 141.375 422.748 139.932 425.562C137.488 430.891 136.387 436.684 136.715 442.485C136.807 447.825 137.481 453.141 138.726 458.35C140.008 462.927 142.326 467.185 145.517 470.83C150.601 476.78 156.63 481.947 163.388 486.145C167.628 488.889 172.028 491.403 176.568 493.676L180.098 495.453C180.523 495.622 180.928 495.835 181.304 496.087C180.852 496.01 180.415 495.868 180.008 495.664L176.345 494.099C171.717 491.963 167.24 489.546 162.941 486.864C156.002 482.713 149.791 477.56 144.534 471.592C141.215 467.891 138.763 463.565 137.341 458.9C136.003 453.587 135.254 448.156 135.107 442.696C134.736 436.629 135.853 430.562 138.368 424.97C141.271 419.058 145.08 413.583 149.672 408.724C158.876 398.571 168.973 388.036 179.651 376.91C200.962 354.741 224.642 330.373 249.572 305.243L271.911 282.439L272.671 281.678L273.475 282.355L332.718 328.553L333.567 329.23L332.852 329.992L246.757 425.182L246.445 424.462C248.1 424.765 249.667 425.402 251.039 426.329C252.411 427.256 253.556 428.452 254.398 429.835C255.524 431.865 256.049 434.146 255.917 436.435C255.88 437.863 255.67 439.283 255.291 440.666C255.245 441.054 255.155 441.437 255.023 441.808Z" fill="#263238"/>
<path d="M280.937 184.794C280.937 184.794 273.967 179.59 272.537 190.632C271.107 201.674 282.232 245.631 283.572 245.631C284.913 245.631 291.793 271.015 290.721 274.484C289.649 277.953 279.507 288.445 279.507 288.445L326.776 325.209L341.386 300.248C352.519 296.108 362.142 288.994 369.086 279.772C379.765 264.922 420.243 208.443 421.405 200.532C422.566 192.621 414.122 191.563 408.001 199.136C401.88 206.709 387.673 224.52 385.126 225.662C382.579 226.804 381.06 223.377 382.445 221.431C383.83 219.485 410.414 179.125 412.916 171.594C416.267 161.652 404.874 159.579 404.874 159.579C404.874 159.579 408.85 149.087 402.997 147.099C397.145 145.11 391.426 150.483 385.126 159.41C378.826 168.337 357.426 197.486 355.192 198.84C352.958 200.193 351.215 198.84 353.181 194.863C355.147 190.886 381.105 155.179 381.016 150.145C380.926 145.11 377.039 137.157 365.959 147.776C354.879 158.395 330.217 202.774 326.419 206.582C322.621 210.389 311.407 222.531 307.073 221.22C302.739 219.908 292.419 207.089 290.14 198.036C288.921 192.69 285.639 187.969 280.937 184.794Z" fill="#FFBF9D"/>
<path d="M280.936 184.795C282.669 185.852 284.183 187.2 285.404 188.772C287.003 190.67 288.27 192.798 289.157 195.076C289.738 196.429 290.051 197.952 290.587 199.306C291.184 200.945 291.901 202.542 292.731 204.087C294.694 207.75 297.076 211.198 299.835 214.367C302.694 217.413 306.85 223.209 311.63 218.598C316.289 215.057 320.596 211.121 324.498 206.837C326.621 204.514 328.465 201.974 329.993 199.264L335.265 190.803C342.458 179.126 350.053 166.096 359.838 152.727C362.307 149.255 365.32 146.159 368.774 143.546C370.681 142.078 373.062 141.272 375.52 141.262C376.804 141.486 377.994 142.056 378.944 142.904C379.895 143.752 380.568 144.842 380.881 146.042C381.255 147.154 381.48 148.305 381.552 149.469C381.498 150.113 381.378 150.751 381.194 151.373L380.524 152.981C379.541 155.011 378.424 156.957 377.307 158.946C374.984 162.838 372.482 166.646 369.935 170.538L354.074 194.23C353.47 195.089 353.102 196.078 353.002 197.106C353.002 197.572 353.002 197.699 353.27 197.741C353.418 197.803 353.578 197.835 353.739 197.835C353.901 197.835 354.061 197.803 354.209 197.741L354.655 197.318L355.281 196.641C355.683 196.218 356.04 195.71 356.443 195.245L358.766 192.368C361.848 188.391 364.931 184.372 367.969 180.268L386.556 154.884C388.24 152.715 390.139 150.703 392.23 148.877C394.395 146.779 397.312 145.526 400.406 145.365C402.054 145.359 403.646 145.932 404.874 146.973C406.04 148.113 406.724 149.618 406.795 151.204C406.983 154.079 406.542 156.959 405.499 159.665L404.65 158.227C406.55 158.527 408.349 159.247 409.901 160.327C411.453 161.408 412.716 162.818 413.586 164.446C414.168 166.155 414.35 167.964 414.119 169.747C413.887 171.53 413.248 173.244 412.246 174.768C409.118 180.818 405.544 186.53 401.969 192.368L390.889 209.841L385.171 218.64L383.696 220.798L383.026 221.856C382.851 222.091 382.758 222.372 382.758 222.66C382.716 222.925 382.739 223.197 382.824 223.453C382.909 223.71 383.055 223.945 383.249 224.14C383.418 224.275 383.632 224.348 383.852 224.348C384.073 224.348 384.287 224.275 384.456 224.14C385.184 223.594 385.857 222.985 386.466 222.321L388.566 220.079L392.632 215.383C395.223 212.168 397.859 208.995 400.45 205.822C403.042 202.649 405.365 199.433 408.403 196.26C409.992 194.68 411.974 193.502 414.167 192.833C415.371 192.395 416.691 192.331 417.936 192.651C419.181 192.97 420.286 193.656 421.092 194.61C421.743 195.573 422.161 196.66 422.315 197.794C422.47 198.928 422.357 200.08 421.985 201.168C421.68 202.174 421.276 203.151 420.779 204.087C420.332 205.018 419.885 205.948 419.394 206.795C417.473 210.306 415.373 213.691 413.228 216.99C409.029 223.633 404.65 230.148 400.316 236.494C391.619 249.214 382.981 261.511 374.403 273.385C372.258 276.347 370.293 279.308 367.969 282.185C365.635 285 363.033 287.605 360.195 289.969C354.62 294.532 348.278 298.179 341.43 300.757L342.011 300.292L327.357 325.211L326.776 326.184L325.883 325.507L278.747 288.615L278.032 288.108L278.658 287.473C281.814 284.292 284.797 280.959 287.593 277.489C288.232 276.65 288.814 275.774 289.336 274.866C289.832 274.077 290.022 273.15 289.872 272.243C289.69 270.226 289.392 268.221 288.978 266.235C288.174 262.258 287.236 258.451 286.208 254.77C285.717 252.951 285.181 251.132 284.6 249.397C284.272 248.523 283.959 247.677 283.662 246.859C283.662 246.478 283.26 246.013 283.125 245.801C283.125 245.801 283.751 245.801 283.349 245.801C283.086 245.751 282.849 245.617 282.679 245.42L282.366 244.701C280.275 238.331 278.531 231.864 277.139 225.325C275.798 219.36 274.681 213.86 273.832 208.868C272.269 199.053 270.928 190.887 273.564 185.853C273.82 185.296 274.194 184.794 274.663 184.38C275.132 183.965 275.686 183.645 276.29 183.441C277.176 183.173 278.129 183.173 279.015 183.441C279.71 183.67 280.348 184.03 280.892 184.499C280.892 184.499 280.266 184.076 278.926 183.653C278.109 183.427 277.241 183.427 276.424 183.653C275.866 183.845 275.357 184.149 274.933 184.543C274.51 184.937 274.18 185.412 273.967 185.937C271.599 190.76 273.028 198.629 274.726 208.614C276.94 220.606 279.925 232.46 283.662 244.109C283.733 244.286 283.823 244.456 283.93 244.617C283.93 244.617 283.528 244.617 283.528 244.87C283.528 245.124 283.528 245.59 283.528 244.49H283.974V244.701C284.27 245.13 284.524 245.583 284.734 246.055C285.091 246.943 285.404 247.832 285.717 248.72C286.298 250.497 286.879 252.274 287.415 254.136C288.442 257.816 289.425 261.666 290.274 265.685C290.73 267.722 291.044 269.786 291.212 271.862C291.257 272.425 291.257 272.991 291.212 273.554C291.086 274.149 290.86 274.72 290.542 275.247C290.011 276.222 289.398 277.156 288.71 278.039C285.948 281.602 282.964 285.007 279.775 288.235V287.092L327.133 323.772L325.659 324.026C330.127 315.988 335.176 307.653 340.224 299.065V298.769H340.582C347.115 296.24 353.156 292.694 358.453 288.277C361.172 286.011 363.656 283.503 365.87 280.789C368.059 278.081 370.337 274.993 372.259 272.031C380.747 260.185 389.415 247.874 398.082 235.182C402.431 228.808 406.705 222.321 410.905 215.721C413.005 212.421 415.105 209.037 416.981 205.61C417.473 204.764 417.92 203.918 418.322 203.029C418.767 202.219 419.126 201.369 419.394 200.491C419.683 199.706 419.785 198.87 419.692 198.044C419.6 197.217 419.315 196.42 418.858 195.71C418.318 195.121 417.595 194.709 416.792 194.534C415.989 194.359 415.148 194.43 414.39 194.737C412.578 195.32 410.95 196.324 409.654 197.656C407.018 200.406 404.472 203.875 401.88 206.964C399.289 210.052 396.653 213.352 394.017 216.567C392.676 218.175 391.336 219.74 389.951 221.306L387.762 223.675C386.965 224.548 386.048 225.316 385.036 225.959C384.414 226.265 383.704 226.372 383.012 226.266C382.32 226.159 381.682 225.844 381.194 225.367C380.771 224.931 380.448 224.416 380.248 223.855C380.048 223.294 379.975 222.699 380.033 222.11C380.073 221.514 380.257 220.936 380.569 220.417L381.328 219.275L382.803 217.117L389.147 208.91C392.9 203.072 396.564 197.233 400.227 191.48C403.891 185.726 407.376 179.888 410.414 174.049C411.274 172.816 411.84 171.42 412.071 169.959C412.303 168.497 412.194 167.006 411.754 165.588C411.031 164.3 410.007 163.184 408.761 162.327C407.514 161.469 406.078 160.892 404.561 160.638L403.31 160.384L403.712 159.242C404.634 156.846 405.044 154.301 404.918 151.754C404.879 150.659 404.436 149.611 403.667 148.792C402.795 148.125 401.705 147.766 400.584 147.777C398.048 147.973 395.67 149.024 393.883 150.738C391.897 152.479 390.087 154.391 388.477 156.45L369.89 181.834C366.852 186.064 363.77 189.999 360.642 193.976L358.274 196.895L357.023 198.376L356.398 199.095L355.415 199.899C355.006 200.144 354.543 200.294 354.062 200.338C353.58 200.382 353.095 200.319 352.645 200.152C352.176 199.939 351.783 199.602 351.514 199.182C351.244 198.761 351.109 198.275 351.126 197.783C351.189 196.401 351.636 195.058 352.421 193.891C357.827 185.43 363.367 177.899 368.461 170.157C371.007 166.265 373.509 162.457 375.788 158.607C376.905 156.704 378.022 154.8 378.96 152.854L379.586 151.415C379.629 150.993 379.629 150.568 379.586 150.146C379.564 149.139 379.383 148.141 379.05 147.185C378.862 146.304 378.407 145.495 377.74 144.856C377.073 144.217 376.224 143.777 375.297 143.589C373.286 143.633 371.35 144.319 369.801 145.535C366.613 147.94 363.801 150.76 361.446 153.911C351.662 166.942 343.977 179.93 336.695 191.564C334.863 194.441 333.12 197.276 331.378 200.026C329.773 202.794 327.855 205.39 325.659 207.768C321.651 212.071 317.24 216.022 312.479 219.571C311.327 220.405 310.025 221.036 308.637 221.433C307.882 221.665 307.068 221.665 306.313 221.433C305.687 221.145 305.089 220.805 304.526 220.417C302.578 218.865 300.811 217.121 299.254 215.214C296.511 211.95 294.145 208.419 292.195 204.679C291.377 203.091 290.676 201.451 290.095 199.772C289.604 198.164 289.291 196.683 288.755 195.541C287.955 193.282 286.762 191.166 285.226 189.28C284.313 188.088 283.264 186.996 282.098 186.022C281.672 185.648 281.283 185.237 280.936 184.795Z" fill="#FF9A6C"/>
<path d="M246.802 425.096C240.525 436.379 232.731 446.845 223.614 456.233C214.357 465.677 201.666 471.451 188.095 472.394" fill="#455A64"/>
<path d="M188.095 472.392C188.095 471.969 192.563 471.969 199.444 469.726C208.269 466.71 216.248 461.819 222.765 455.427C229.297 448.97 235.093 441.88 240.056 434.274C242.034 431.029 244.29 427.945 246.802 425.051C245.436 428.572 243.652 431.936 241.486 435.077C236.827 443.041 231.09 450.395 224.418 456.95C217.656 463.58 209.234 468.484 199.935 471.207C197.122 471.959 194.23 472.413 191.312 472.561C190.238 472.7 189.146 472.642 188.095 472.392Z" fill="#263238"/>
<path d="M251.449 457.715C249.744 460.834 247.544 463.688 244.926 466.176C232.942 478.751 217.457 487.872 200.248 492.491C196.749 493.618 193.086 494.218 189.391 494.268C213.556 488.332 235.254 475.603 251.628 457.757L251.449 457.715Z" fill="#263238"/>
<g opacity="0.3">
<path d="M189.748 470.365C200.918 474.215 211.551 475.654 222.319 470.958C233.219 466.157 241.713 457.521 245.998 446.885C249.036 439.228 249.751 430.766 253.325 423.278C261.323 406.652 282.232 397.09 286.968 379.406C270.303 396.667 254.666 412.109 241.754 432.797C235.6 442.946 227.563 451.961 218.03 459.408C209.954 465.989 199.806 469.856 189.167 470.408" fill="black"/>
</g>
<g opacity="0.3">
<path d="M357.425 593.9L367.88 596.82C367.88 596.82 371.901 522.952 360.776 500.572L357.425 593.9Z" fill="black"/>
</g>
</svg>
