<svg width="700" height="1390" viewBox="0 0 700 1390" fill="none" xmlns="http://www.w3.org/2000/svg">
<path d="M428.151 1222.4L413.765 1302.78C413.765 1302.78 499.011 1335.74 499.726 1351.56L334.059 1349.19L354.834 1216.9L428.151 1222.4Z" fill="#263238"/>
<path d="M362.653 1295C361.014 1295.52 359.627 1296.58 358.748 1297.98C357.869 1299.39 357.558 1301.05 357.872 1302.66C358.208 1304.24 359.182 1305.62 360.585 1306.52C361.989 1307.43 363.709 1307.77 365.378 1307.48C367.117 1306.94 368.587 1305.82 369.516 1304.32C370.445 1302.83 370.769 1301.07 370.427 1299.36C370.177 1298.56 369.76 1297.81 369.2 1297.16C368.64 1296.51 367.949 1295.97 367.166 1295.57C366.384 1295.18 365.527 1294.94 364.644 1294.86C363.762 1294.79 362.872 1294.88 362.027 1295.13" fill="#E0E0E0"/>
<path d="M334.059 1349.32L336.159 1336L493.337 1343.23C493.337 1343.23 500.664 1346.53 499.726 1351.69L334.059 1349.32Z" fill="#455A64"/>
<path d="M416.445 1302.11C416.445 1302.91 412.38 1303.21 408.359 1305.79C404.338 1308.37 402.148 1311.67 401.434 1311.33C400.719 1311 401.97 1306.38 406.884 1303.38C411.799 1300.38 416.669 1301.39 416.445 1302.11Z" fill="white"/>
<path d="M433.736 1309.56C433.736 1310.32 430.385 1311.67 427.57 1315.01C424.756 1318.36 423.951 1321.99 423.102 1321.95C422.254 1321.91 421.852 1317.34 425.381 1313.19C428.911 1309.05 433.736 1308.88 433.736 1309.56Z" fill="white"/>
<path d="M443.297 1330.46C442.538 1330.46 441.51 1326.57 443.655 1322C445.799 1317.43 449.597 1315.9 449.91 1316.58C450.222 1317.26 447.854 1319.58 446.157 1323.22C444.459 1326.86 444.101 1330.37 443.297 1330.46Z" fill="white"/>
<path d="M415.507 1282.61C415.15 1283.33 411.486 1282.14 406.884 1282.4C402.282 1282.65 398.708 1284.05 398.306 1283.33C397.904 1282.61 401.389 1279.82 406.75 1279.6C412.111 1279.39 415.507 1281.97 415.507 1282.61Z" fill="white"/>
<path d="M188.632 1235.05L144.668 1309.47C144.668 1309.47 205.52 1374.96 198.684 1389.26L51.5142 1317.34L115.27 1198.88L188.632 1235.05Z" fill="#263238"/>
<path d="M102.76 1280.83C101.049 1280.59 99.3041 1280.95 97.85 1281.84C96.3959 1282.72 95.3306 1284.08 94.8517 1285.65C94.4227 1287.21 94.6492 1288.86 95.4832 1290.26C96.3172 1291.65 97.6931 1292.69 99.3196 1293.14C101.128 1293.37 102.964 1292.98 104.49 1292.03C106.016 1291.08 107.13 1289.64 107.63 1287.98C108.166 1284.72 105.396 1280.62 102.045 1280.75" fill="#E0E0E0"/>
<path d="M51.5142 1317.34L58.3946 1305.62L196.897 1379.11C196.897 1379.11 201.901 1385.16 198.639 1389.39L51.5142 1317.34Z" fill="#455A64"/>
<path d="M147.438 1309.9C147.036 1310.62 143.238 1309.18 138.502 1309.9C133.767 1310.62 130.192 1312.56 129.567 1311.97C128.941 1311.38 132.426 1307.74 138.234 1307.1C144.043 1306.47 148.019 1309.3 147.438 1309.9Z" fill="white"/>
<path d="M159.456 1323.86C159.233 1324.62 155.435 1324.32 151.37 1326.14C147.304 1327.96 144.802 1330.88 144.132 1330.37C143.462 1329.86 145.159 1325.68 150.297 1323.48C155.435 1321.28 159.814 1323.14 159.456 1323.86Z" fill="white"/>
<path d="M158.161 1346.62C157.446 1346.62 158.161 1342.39 162.36 1339.34C166.56 1336.29 170.581 1336.38 170.536 1337.14C170.492 1337.9 167.32 1338.96 164.058 1341.37C160.797 1343.78 158.92 1346.96 158.161 1346.62Z" fill="white"/>
<path d="M155.614 1291.96C154.944 1292.47 152.219 1289.88 147.974 1288.15C143.73 1286.42 139.932 1286.16 139.888 1285.4C139.843 1284.64 144.355 1283.5 149.225 1285.61C154.095 1287.73 156.374 1291.53 155.614 1291.96Z" fill="white"/>
<path d="M291.212 742.478C291.212 742.478 320.834 1013.71 312.032 1045.1C303.231 1076.49 161.556 1316.28 161.556 1316.28L63.6663 1264.79C63.6663 1264.79 182.689 1047.64 181.17 1038.45C179.651 1029.27 184.342 1003.17 184.342 1003.17L118.665 795.108L131.756 705.756L247.919 694.672L291.212 742.478Z" fill="#263238"/>
<path d="M213.562 844.776C216.511 853.237 374.09 1023.44 374.09 1023.44C373.513 1027.09 374.136 1030.83 375.878 1034.14C379.288 1038.34 383.96 1041.47 389.281 1043.11L326.732 1288.49L436.148 1298.05C436.148 1298.05 501.423 1052.67 498.698 1021.57C495.973 990.479 340.09 750.432 340.09 750.432L228.395 744.721L213.562 844.776Z" fill="#263238"/>
<path d="M294.116 801.75C293.979 804.022 293.604 806.275 293 808.477C292.268 814.628 292.089 820.827 292.463 827.007C294.305 847.411 297.483 867.686 301.98 887.717C306.482 907.841 309.734 928.197 311.72 948.681C312.181 954.926 312.062 961.197 311.362 967.422C311.094 969.707 310.585 971.96 309.843 974.149C309.875 971.867 310.084 969.591 310.469 967.338C310.798 961.16 310.663 954.968 310.067 948.808C308.771 933.154 304.392 911.789 299.701 888.14C295.112 868.017 292.125 847.596 290.766 827.049C290.517 820.792 290.936 814.527 292.017 808.35C292.525 806.099 293.227 803.892 294.116 801.75Z" fill="#455A64"/>
<path d="M527.605 383.973C527.605 383.973 547.576 353.597 565.849 350.889C584.123 348.181 615.755 350.889 615.755 350.889L598.688 416.21L560.711 422.429L527.605 383.973Z" fill="#FFBF9D"/>
<path d="M236.124 433.683L377.486 441.848L522.422 377.965L567.279 429.96L389.683 519.311L291.481 530.988L236.124 433.683Z" fill="#455A64"/>
<path d="M676.338 572.281L564.196 553.666L538.864 690.655L383.383 664.89L408.716 527.902L37.887 466.43L56.6518 364.895L457.862 5.03516L625.137 32.746L251.493 375.133L436.506 405.763L459.068 283.708L609.589 308.669L587.027 430.724L699.214 449.338L676.338 572.281Z" fill="#FF725E"/>
<g opacity="0.3">
<path d="M676.338 572.281L564.196 553.666L538.864 690.655L383.383 664.89L408.716 527.902L37.887 466.43L56.6518 364.895L457.862 5.03516L625.137 32.746L251.493 375.133L436.506 405.763L459.068 283.708L609.589 308.669L587.027 430.724L699.214 449.338L676.338 572.281Z" fill="black"/>
</g>
<path d="M638.451 567.288L526.264 548.716L500.932 685.662L345.452 659.897L370.829 522.909L0 461.437L18.7648 359.902L419.975 0L587.25 27.7108L213.472 370.098L398.44 400.77L420.779 278.673L571.345 303.634L548.782 425.688L660.925 444.303L638.451 567.288Z" fill="#D74339"/>
<g opacity="0.3">
<path d="M303.231 502.388C303.231 502.388 287.013 461.013 272.671 445.063C261.873 432.578 251.805 419.542 242.513 406.014L314.713 375.892L277.005 348.52L213.428 376.103L209.63 430.171L286.343 505.858L303.231 502.388Z" fill="black"/>
</g>
<path d="M250.555 228.498C257.82 234.237 263.508 241.556 267.134 249.829C270.759 258.103 272.215 267.086 271.375 276.008C270.527 284.47 267.801 294.454 273.565 301.138C279.328 307.823 290.855 307.823 296.351 314.634C302.829 322.672 297.021 334.349 299.21 344.249C300.389 348.904 303.291 353.004 307.39 355.806C311.488 358.609 316.512 359.927 321.549 359.521C309.625 368.361 295.354 373.909 280.311 375.556L269.186 361.425C271.053 364.088 271.93 367.263 271.679 370.45C271.428 373.637 270.064 376.654 267.801 379.025C263.049 383.717 256.915 386.946 250.198 388.29C234.713 392.494 218.412 393.257 202.565 390.52C186.718 387.783 171.751 381.619 158.831 372.509" fill="#263238"/>
<path d="M77.3827 301.687C80.4211 295.337 83.1055 288.841 85.4247 282.226C89.0436 267.63 81.8504 251.003 89.6244 237.931C95.1645 228.666 106.647 224.266 117.459 221.347C128.271 218.427 139.798 215.974 148.108 208.655C154.095 203.282 157.625 195.963 163.567 190.378C172.1 182.721 184.521 180.267 196.271 179.801C208.394 178.926 220.55 181.024 231.567 185.894C237.027 188.392 241.794 192.065 245.487 196.62C249.179 201.174 251.695 206.484 252.834 212.124C252.923 217.7 253.491 223.261 254.532 228.75C256.408 234.631 261.189 239.242 264.048 244.742C266.896 250.66 267.608 257.3 266.074 263.639C264.539 269.977 260.844 275.662 255.559 279.814L170.671 379.573C153.157 385.454 111.115 377.161 97.9346 364.723C84.7545 352.285 71.4851 318.313 77.3827 301.687Z" fill="#263238"/>
<path d="M253.638 266.827C250.689 243.77 232.773 216.27 208.558 219.993L133.633 242.331C130.077 242.873 126.866 244.662 124.639 247.343C122.413 250.024 121.333 253.4 121.614 256.8L140.111 423.699C140.111 423.699 134.526 427.93 130.952 426.491C130.754 426.404 130.531 426.382 130.318 426.428C130.105 426.474 129.914 426.586 129.776 426.746C129.638 426.906 129.559 427.105 129.554 427.312C129.548 427.519 129.616 427.721 129.746 427.888C138.413 440.58 179.517 494.901 223.57 479.29C233.354 475.821 223.212 446.629 224.597 435.884L223.838 408.427C223.168 394.381 222.855 388.627 222.855 388.796C222.855 388.966 253.772 382.197 257.927 343.232C259.804 323.856 256.9 292.464 253.638 266.827Z" fill="#FFBF9D"/>
<path d="M247.696 301.982C247.795 303.271 247.353 304.544 246.466 305.527C245.58 306.509 244.32 307.12 242.96 307.228C242.294 307.317 241.617 307.276 240.968 307.109C240.319 306.942 239.713 306.652 239.187 306.256C238.66 305.861 238.224 305.368 237.905 304.807C237.586 304.247 237.391 303.632 237.33 302.998C237.231 301.704 237.672 300.426 238.557 299.437C239.443 298.448 240.703 297.828 242.066 297.709C242.735 297.621 243.417 297.663 244.068 297.832C244.719 298.002 245.327 298.296 245.854 298.696C246.382 299.096 246.817 299.594 247.133 300.159C247.45 300.724 247.641 301.345 247.696 301.982Z" fill="#263238"/>
<path d="M196.941 304.228C197.029 305.515 196.583 306.782 195.698 307.762C194.814 308.741 193.561 309.356 192.206 309.474C191.538 309.557 190.861 309.512 190.212 309.343C189.563 309.174 188.957 308.884 188.428 308.49C187.899 308.096 187.459 307.606 187.134 307.048C186.808 306.491 186.603 305.877 186.531 305.244C186.444 303.953 186.888 302.68 187.772 301.694C188.655 300.708 189.908 300.084 191.267 299.955C191.939 299.867 192.622 299.909 193.276 300.078C193.93 300.247 194.541 300.54 195.072 300.94C195.603 301.34 196.042 301.837 196.363 302.402C196.685 302.968 196.881 303.589 196.941 304.228Z" fill="#263238"/>
<path d="M249.93 285.908C249.349 286.796 244.524 283.792 238.448 284.511C232.371 285.231 228.35 289.123 227.591 288.361C226.831 287.6 227.591 286.5 229.423 284.723C231.669 282.403 234.706 280.906 238.001 280.492C241.251 280.137 244.528 280.887 247.249 282.608C249.349 284.088 250.198 285.484 249.93 285.908Z" fill="#263238"/>
<path d="M195.244 289.294C194.529 290.14 189.793 286.756 183.27 286.925C176.747 287.094 172.011 290.479 171.296 289.675C170.581 288.871 171.654 287.856 173.709 286.248C176.448 284.23 179.801 283.103 183.27 283.033C186.716 282.986 190.08 284.028 192.831 285.994C194.886 287.348 195.601 288.786 195.244 289.294Z" fill="#263238"/>
<path d="M214.991 325.97C217.87 324.939 220.871 324.243 223.927 323.897C225.357 323.686 226.697 323.347 226.876 322.416C226.935 321.009 226.529 319.618 225.714 318.44L220.844 308.328C216.39 299.759 212.64 290.876 209.63 281.76C214.842 289.938 219.325 298.514 223.034 307.398L227.769 317.593C228.761 319.186 229.125 321.059 228.797 322.882C228.627 323.376 228.336 323.825 227.948 324.193C227.56 324.56 227.085 324.836 226.563 324.997C225.786 325.257 224.974 325.413 224.151 325.462C221.131 325.99 218.055 326.16 214.991 325.97Z" fill="#263238"/>
<path d="M222.676 388.799C203.503 390.094 184.326 386.33 167.275 377.926C167.275 377.926 182.6 404.283 223.168 398.487L222.676 388.799Z" fill="#FF9A6C"/>
<path d="M197.522 341.16C198.206 339.883 199.221 338.791 200.471 337.987C201.994 337.311 203.722 337.176 205.341 337.606C207.745 338.001 209.952 339.112 211.641 340.779C212.471 341.619 213.047 342.657 213.307 343.781C213.566 344.906 213.5 346.075 213.115 347.167C212.445 349.41 208.915 350.552 206.503 350.89C204.063 351.171 201.596 350.632 199.533 349.367C198.635 348.98 197.849 348.393 197.242 347.657C196.636 346.92 196.226 346.056 196.048 345.137C196.127 343.705 196.639 342.324 197.522 341.16Z" fill="#FF9A6C"/>
<path d="M198.863 333.713C199.756 333.713 200.114 339.382 205.609 343.19C211.104 346.997 217.538 346.024 217.627 346.828C217.717 347.632 216.242 348.055 213.472 348.266C209.906 348.49 206.368 347.533 203.464 345.559C200.688 343.633 198.801 340.77 198.192 337.563C197.835 335.151 198.416 333.713 198.863 333.713Z" fill="#263238"/>
<path d="M195.199 272.367C194.708 273.805 189.078 273.424 182.51 274.567C175.943 275.709 170.715 277.655 169.777 276.386C169.33 275.794 170.179 274.397 172.279 272.874C175.018 270.956 178.206 269.693 181.572 269.194C184.926 268.642 188.369 268.845 191.625 269.786C194.082 270.505 195.378 271.563 195.199 272.367Z" fill="#263238"/>
<path d="M245.73 263.23C244.658 264.499 240.19 263.484 234.829 263.738C229.467 263.992 225.044 265.092 223.927 263.738C222.81 262.384 223.927 261.918 225.982 260.649C228.657 259.051 231.755 258.201 234.918 258.195C238.031 258.033 241.128 258.708 243.854 260.142C245.373 261.411 246.043 262.638 245.73 263.23Z" fill="#263238"/>
<path d="M117.012 247.577C121.468 242.512 127.481 238.888 134.213 237.212C162.198 227.584 191.295 221.15 220.889 218.047C224.419 223.843 220.889 231.585 215.26 235.646C209.24 239.197 202.666 241.824 195.78 243.431C192.347 244.274 189.127 245.761 186.31 247.803C183.494 249.845 181.138 252.4 179.383 255.319C176.345 261.834 178.624 269.661 175.943 276.472C171.475 287.937 154.229 291.364 149.627 302.829C146.187 311.544 151.37 320.936 152.487 330.159C153.086 334.846 152.62 339.599 151.121 344.101C149.621 348.603 147.123 352.75 143.794 356.263C140.464 359.776 136.38 362.575 131.815 364.472C127.25 366.369 122.31 367.32 117.325 367.262C115.985 334.094 114.659 300.939 113.349 267.799C113.081 260.734 112.947 253.288 117.012 247.577Z" fill="#263238"/>
<path d="M44.6783 329.905C50.3078 325.336 57.3222 321.444 59.6902 314.717C63.0857 305.029 55.2224 293.564 60.5391 284.595C65.5877 276.557 79.9294 277.234 84.6206 269.026C88.2842 262.638 84.3525 256.842 85.7822 251.173C87.0698 248.151 89.329 245.589 92.2398 243.85C95.1506 242.111 98.5654 241.284 102 241.485L148.376 307.906C152.353 329.99 156.597 341.751 151.325 354.443C147.948 361.217 145.328 368.307 143.506 375.596C142.645 379.275 142.837 383.105 144.062 386.69C145.287 390.275 147.502 393.485 150.476 395.988C121.882 397.596 95.3881 382.958 70.9491 368.785L45.0804 353.809C42.2358 352.472 39.7927 350.479 37.9766 348.013C34.4023 342.132 39.2276 334.517 44.6783 329.905Z" fill="#263238"/>
<path d="M70.5022 362.356C71.4878 362.671 72.5065 362.883 73.5403 362.991C76.5227 363.331 79.5444 363.188 82.476 362.567C87.1466 361.599 91.4722 359.5 95.0305 356.475C99.7156 352.365 102.721 346.822 103.519 340.822C104.012 337.342 103.769 333.804 102.805 330.414C101.585 326.833 99.8728 323.419 97.7112 320.261C95.4135 317.016 93.6369 313.466 92.4392 309.727C91.8323 307.815 91.6778 305.801 91.9867 303.826C92.2956 301.852 93.0603 299.966 94.2263 298.304C96.907 295.046 101.732 294.327 106.245 292.719C108.705 291.933 110.855 290.458 112.41 288.489C113.884 286.418 114.634 283.962 114.555 281.466C114.041 276.661 113.038 271.915 111.561 267.293C111.025 265.023 111.025 262.668 111.561 260.397C112.227 258.172 113.718 256.249 115.761 254.982C120.203 252.664 125.211 251.496 130.282 251.597C135.484 251.516 140.582 250.208 145.115 247.79C149.438 245.337 152.987 241.831 155.391 237.636C157.434 233.563 158.776 229.207 159.367 224.733C159.945 220.609 160.979 216.553 162.45 212.633C163.995 209.042 166.342 205.809 169.33 203.156C174.318 198.782 180.641 196.017 187.391 195.256C194.142 194.496 200.973 195.781 206.905 198.926C210.999 200.99 214.663 203.742 217.717 207.049C220.293 209.914 222.512 213.051 224.329 216.398C224.329 216.398 224.329 216.145 224.329 215.721C224.329 215.298 223.838 214.537 223.346 213.691C222.013 211.171 220.363 208.813 218.432 206.668C215.403 203.23 211.72 200.36 207.575 198.207C202.074 195.197 195.783 193.729 189.436 193.976C181.679 194.463 174.332 197.449 168.616 202.437C165.461 205.209 162.964 208.583 161.288 212.337C159.771 216.337 158.708 220.478 158.116 224.69C157.493 228.999 156.182 233.193 154.229 237.129C151.964 241.086 148.595 244.379 144.489 246.648C140.201 248.968 135.355 250.207 130.416 250.244C125.042 250.14 119.736 251.396 115.046 253.882C112.675 255.36 110.946 257.598 110.176 260.186C109.575 262.692 109.575 265.294 110.176 267.801C111.595 272.334 112.582 276.978 113.125 281.677C113.215 283.861 112.591 286.018 111.338 287.854C109.92 289.53 108.03 290.791 105.887 291.492C103.743 292.296 101.419 292.846 99.1856 293.692C96.8711 294.46 94.8182 295.805 93.2434 297.585C91.9166 299.419 91.0498 301.516 90.7091 303.715C90.3684 305.915 90.5628 308.159 91.2775 310.277C92.5249 314.141 94.3773 317.806 96.773 321.149C98.8862 324.2 100.568 327.5 101.777 330.964C103.074 335.362 103.095 340.009 101.837 344.417C100.579 348.825 98.0886 352.83 94.6284 356.01C91.2256 359.004 87.0745 361.13 82.5653 362.187C78.5988 363.024 74.4931 363.081 70.5022 362.356Z" fill="#455A64"/>
<path d="M33.3748 315.056C32.8834 315.713 32.5481 316.464 32.3919 317.256C31.891 319.547 32.2713 321.933 33.4642 323.982C34.3277 325.474 35.5526 326.75 37.0384 327.705C38.8738 328.755 40.9707 329.325 43.1146 329.355C45.7348 329.354 48.3041 328.67 50.5418 327.379C52.7795 326.088 54.5996 324.24 55.8033 322.036C57.2124 319.504 57.9629 316.691 57.9925 313.829C57.9471 310.76 57.327 307.723 56.1607 304.86C54.0162 298.979 50.0398 293.183 50.0845 286.372C49.9852 284.686 50.2422 282.998 50.8406 281.407C51.439 279.816 52.3667 278.354 53.5694 277.107C56.5305 274.904 60.2774 273.873 64.024 274.23C68.1924 274.611 72.3991 274.282 76.4446 273.257C78.5582 272.479 80.357 271.087 81.5825 269.28C82.7835 267.488 83.5467 265.464 83.8165 263.357C84.0743 259.336 83.8042 255.3 83.0123 251.342C82.4709 247.615 82.7755 243.822 83.9058 240.215C86.0784 233.334 90.9557 227.505 97.5327 223.927C103.733 221.091 110.579 219.754 117.459 220.035C123.584 220.135 129.688 219.336 135.554 217.666C140.365 216.07 144.777 213.549 148.511 210.262C151.366 207.82 153.794 204.964 155.704 201.801C157.412 199.202 158.621 196.337 159.278 193.34C158.209 196.202 156.831 198.952 155.168 201.547C150.543 208.597 143.488 213.918 135.196 216.608C129.387 218.169 123.361 218.882 117.325 218.724C110.22 218.387 103.14 219.74 96.7284 222.658C89.8085 226.353 84.633 232.404 82.2528 239.581C81.0757 243.396 80.7411 247.399 81.2698 251.342C82.0664 255.171 82.3367 259.082 82.074 262.976C81.9621 264.835 81.3106 266.628 80.1911 268.158C79.0717 269.689 77.5279 270.897 75.7297 271.649C71.8819 272.589 67.891 272.89 63.9347 272.538C59.7771 272.167 55.6334 273.369 52.4077 275.88C51.0368 277.251 49.9799 278.876 49.3033 280.652C48.6268 282.429 48.3452 284.318 48.4761 286.203C48.5573 289.688 49.3619 293.123 50.844 296.314C52.1843 299.402 53.6587 302.279 54.7756 305.156C55.9296 307.846 56.5506 310.714 56.6075 313.617C56.6186 316.297 55.9441 318.939 54.6416 321.317C53.5463 323.358 51.8883 325.081 49.8433 326.302C47.7983 327.524 45.4424 328.199 43.0253 328.255C41.529 328.282 40.0445 328.001 38.6745 327.43C37.3046 326.859 36.0821 326.014 35.0918 324.951C34.1015 323.889 33.3671 322.635 32.9395 321.277C32.5118 319.919 32.4012 318.489 32.6153 317.086C32.8319 316.398 33.0854 315.72 33.3748 315.056Z" fill="#263238"/>
<path d="M334.014 336.802C334.869 339.088 334.869 341.582 334.014 343.868C333.508 345.175 332.699 346.358 331.648 347.332C330.597 348.305 329.329 349.044 327.938 349.494C326.087 349.967 324.135 349.944 322.297 349.429C320.459 348.913 318.809 347.925 317.528 346.575C316.067 344.99 315.244 342.967 315.205 340.864C315.154 338.542 315.563 336.231 316.411 334.052C318.994 329.231 320.514 323.963 320.879 318.568C320.721 315.533 319.896 312.561 318.457 309.844C317.019 307.127 314.998 304.724 312.524 302.788C309.888 300.718 306.854 299.152 303.588 298.176C300.295 297.235 296.885 296.709 293.446 296.611C290.125 296.518 286.82 296.135 283.573 295.469C280.532 294.807 277.84 293.143 275.977 290.773C274.321 288.383 273.422 285.593 273.386 282.735C273.265 279.888 273.566 277.04 274.28 274.273C275.962 269.154 276.938 263.85 277.184 258.493C276.992 253.725 275.313 249.117 272.358 245.251C269.836 242.192 266.729 239.609 263.199 237.636C260.625 236.153 258.175 234.484 255.872 232.644C253.968 231.032 252.445 229.057 251.404 226.848C251.404 226.848 251.404 226.848 251.404 227.355C251.549 227.804 251.729 228.242 251.94 228.667C252.807 230.336 253.988 231.842 255.425 233.109C257.678 235.06 260.099 236.828 262.663 238.397C266.045 240.361 269.002 242.917 271.375 245.928C274.179 249.637 275.736 254.06 275.843 258.62C275.504 263.862 274.499 269.047 272.85 274.062C272.092 276.909 271.746 279.841 271.822 282.777C271.89 285.918 272.88 288.98 274.682 291.619C276.766 294.292 279.794 296.169 283.215 296.907C286.545 297.633 289.942 298.044 293.357 298.134C296.656 298.247 299.927 298.745 303.097 299.615C306.113 300.54 308.928 301.974 311.407 303.846C313.721 305.642 315.615 307.876 316.969 310.403C318.323 312.93 319.106 315.696 319.27 318.526C319.673 323.983 316.679 328.722 314.803 333.502C313.924 335.835 313.515 338.304 313.596 340.779C313.693 343.164 314.673 345.441 316.366 347.21C317.811 348.677 319.661 349.732 321.706 350.255C323.751 350.779 325.91 350.749 327.938 350.171C329.43 349.668 330.779 348.844 331.88 347.766C332.98 346.687 333.803 345.382 334.282 343.952C334.989 342.197 335.129 340.283 334.684 338.452C334.565 337.869 334.338 337.311 334.014 336.802Z" fill="#263238"/>
<path d="M626.12 347.803C630.141 353.472 617.631 360.241 617.631 360.241C620.938 362.272 619.061 372.933 613.789 373.864C616.202 375.26 617.855 375.26 619.15 377.671C619.843 378.857 620.225 380.183 620.264 381.538C620.303 382.893 619.998 384.236 619.374 385.456C618.711 386.663 617.649 387.631 616.35 388.212C615.051 388.793 613.586 388.954 612.181 388.671C613.728 390.166 614.761 392.07 615.144 394.131C615.527 396.193 615.241 398.316 614.325 400.221C613.157 402.496 611.133 404.276 608.651 405.213C607.426 405.672 606.126 405.93 604.809 405.975C604.305 406.038 603.794 406.038 603.29 405.975C603.07 405.888 602.872 405.758 602.709 405.594C601.905 404.959 601.234 404.155 600.341 403.563L599.358 402.886C597.77 401.955 596.057 401.229 594.265 400.728C593.4 400.577 592.549 400.364 591.718 400.094C591.25 399.782 590.802 399.442 590.378 399.079C587.193 397.358 583.661 396.291 580.012 395.948C576.019 395.58 572.228 394.109 569.111 391.717C567.608 390.468 566.678 388.713 566.519 386.825C566.361 384.937 566.986 383.065 568.262 381.606C566.997 381.492 565.821 380.942 564.956 380.061C564.091 379.18 563.598 378.028 563.571 376.825C563.583 375.621 563.922 374.439 564.556 373.394C565.19 372.35 566.097 371.477 567.19 370.86C569.38 369.631 571.882 368.988 574.428 368.999C572.979 368.648 571.733 367.774 570.956 366.565C570.179 365.355 569.934 363.905 570.273 362.526C570.674 361.167 571.428 359.925 572.466 358.913C573.504 357.901 574.792 357.15 576.215 356.73C579.113 355.921 582.166 355.733 585.15 356.18C588.144 356.476 600.475 357.576 603.468 357.449L605.658 349.707L605.926 348.734C611.242 347.549 612.761 346.915 617.542 346.153C621.027 345.561 624.467 345.434 626.12 347.803Z" fill="#FFBF9D"/>
<path d="M604.809 416.211C604.652 417.374 604.241 418.494 603.602 419.499C602.964 420.504 602.112 421.372 601.1 422.049C597.583 423.006 593.84 422.917 590.378 421.795L591.495 413.799L591.807 411.853C591.048 410.161 587.339 409.738 585.91 408.765C584.526 407.835 583.58 406.431 583.271 404.852C582.963 403.272 583.316 401.64 584.257 400.303C585.261 399.006 586.635 398.006 588.217 397.422C589.8 396.838 591.526 396.692 593.192 397.004C596.509 397.685 599.439 399.509 601.413 402.123C602.975 404.122 604.083 406.406 604.667 408.83C605.252 411.255 605.3 413.768 604.809 416.211Z" fill="#FFBF9D"/>
<path d="M613.163 388.839C598.502 384.953 583.454 382.514 568.262 381.562C575.524 383.84 583.007 385.427 590.601 386.301C598.014 387.856 605.572 388.706 613.163 388.839Z" fill="#FF9A6C"/>
<path d="M614.459 373.904C608.07 371.317 601.28 369.731 594.354 369.208C587.535 367.961 580.546 367.79 573.668 368.7C580.398 369.978 587.2 370.882 594.041 371.408C600.79 372.617 607.608 373.45 614.459 373.904Z" fill="#FF9A6C"/>
<path d="M615.755 359.309C610.436 357.284 604.776 356.181 599.045 356.051C593.402 355.186 587.664 355.029 581.978 355.586C587.422 357.194 593.076 358.077 598.777 358.209C604.387 359.078 610.072 359.446 615.755 359.309Z" fill="#FF9A6C"/>
<path d="M604.317 411.134C604.585 411.134 605.3 409.781 604.764 407.369C603.915 404.303 601.829 401.675 598.956 400.05C596.225 398.406 593.195 397.258 590.02 396.666C587.205 396.369 585.954 398.062 586.312 398.189C586.669 398.316 587.697 397.596 589.707 398.189C592.441 399.188 595.073 400.419 597.571 401.869C600.025 403.241 601.975 405.294 603.156 407.75C604.004 409.738 603.96 411.092 604.317 411.134Z" fill="#FF9A6C"/>
<path d="M134.035 404.366C108.211 426.661 90.7862 435.08 87.4353 458.053C85.1784 478.346 87.4774 498.862 94.1817 518.255C108.166 557.473 126.037 603.587 136.894 625.756C140.791 633.783 141.489 642.874 138.86 651.351C132.784 670.601 116.521 707.281 119.023 781.782L360.732 765.79C360.732 765.79 318.69 674.112 309.441 628.379C308.324 622.837 314.758 556.796 311.675 543.766C299.925 495.155 244.345 447.011 226.072 421.077L223.972 412.615L135.688 398.654L134.035 404.366Z" fill="#455A64"/>
<g opacity="0.3">
<path d="M133.186 601.854C133.186 601.854 163.165 661.083 178.087 666.625C193.01 672.167 317.215 656.133 317.215 656.133L309.665 628.38L133.186 601.854Z" fill="black"/>
</g>
<path d="M241.664 440.07C243.171 441.041 244.55 442.177 245.775 443.455C248.277 445.782 251.762 449.293 255.783 453.862C263.959 462.916 273.654 476.539 284.823 491.134C294.677 503.559 302.522 517.305 308.101 531.918C309.712 536.381 310.981 540.947 311.898 545.583C312.311 547.26 312.507 548.98 312.479 550.702C312.077 550.702 310.96 543.468 306.537 532.468C300.581 518.183 292.649 504.71 282.947 492.403C271.733 477.765 262.261 464.1 254.487 454.835C250.689 450.182 247.428 446.374 245.105 444.047C243.82 442.834 242.667 441.502 241.664 440.07Z" fill="#263238"/>
<path d="M102.76 430.553C102.76 430.553 50.4863 463.722 81.9398 521.639C109.908 573.127 155.301 636.332 173.619 646.275C191.937 656.217 389.594 615.814 389.594 615.814L383.428 543.427L213.651 577.273L164.862 490.925C164.862 490.925 145.651 418.073 102.76 430.553Z" fill="#455A64"/>
<path d="M384.233 553.621C384.233 553.621 386.198 545.879 400.764 536.698C409.555 531.46 416.784 524.178 421.762 515.545C424.666 511.314 428.732 503.869 432.798 505.984C436.864 508.099 436.149 513.98 433.379 523.245C430.609 532.51 422.343 540.168 425.56 543.721C428.777 547.275 473.544 542.706 486.546 540.21C499.547 537.714 505.668 538.814 503.791 544.906C501.915 550.998 461.347 552.436 458.443 558.19C455.539 563.944 460.186 562.675 464.653 564.282C469.121 565.89 512.906 561.405 513.799 568.936C514.693 576.467 509.332 576.974 509.332 576.974C509.332 576.974 510.672 585.901 503.568 588.439C496.464 590.978 452.054 585.901 453.529 591.189C455.003 596.477 489.271 599.143 490.343 607.435C491.416 615.727 482.882 612.554 473.946 610.777C460.144 607.507 446.058 605.426 431.86 604.558C417.026 604.346 388.611 602.062 388.611 602.062L384.233 553.621Z" fill="#FFBF9D"/>
<path d="M509.912 577.863C500.054 578.596 490.149 578.596 480.291 577.863C470.397 577.786 460.524 576.994 450.758 575.494C460.617 574.76 470.521 574.76 480.38 575.494C490.273 575.571 500.146 576.363 509.912 577.863Z" fill="#FF725E"/>
<path d="M201.052 601.853C200.752 597.222 202.037 592.623 204.716 588.738C206.702 584.493 210.109 580.984 214.411 578.754C214.858 579.219 210.39 583.45 206.771 589.796C203.152 596.142 201.901 601.938 201.052 601.853Z" fill="#263238"/>
<path d="M154.586 474.172C155.048 474.715 155.481 475.28 155.882 475.864C156.686 477.006 157.803 478.783 159.233 481.068C162.137 485.679 166.247 492.575 171.475 501.46C181.84 519.228 196.718 544.908 214.411 576.934L213.428 576.511L383.205 542.37L384.5 542.116V543.343C386.511 566.569 388.566 590.642 390.666 615.264V615.603V616.576L389.683 616.787C339.197 627.025 290.989 635.994 246.713 642.594C235.677 644.244 224.865 645.683 214.366 646.825C204.126 648.055 193.815 648.691 183.493 648.729C180.974 648.663 178.464 648.409 175.987 647.967C174.704 647.706 173.479 647.233 172.368 646.571L169.777 644.667C167.821 643.332 165.996 641.831 164.326 640.183C162.601 638.67 160.975 637.059 159.456 635.36C156.374 632.102 153.38 628.845 150.744 625.46C148.108 622.076 145.427 618.86 142.97 615.603C123.446 589.415 109.953 566.823 100.526 551.339C96.058 543.555 92.3496 537.463 90.0264 533.274C88.9094 531.286 88.0606 529.678 87.4351 528.536C87.1175 528.009 86.8484 527.457 86.6309 526.886C86.9866 527.377 87.3147 527.885 87.6138 528.409L90.4285 533.063L101.33 550.916C110.936 566.273 124.652 588.738 144.31 614.714C146.768 617.93 149.314 621.229 152.084 624.445C154.854 627.66 157.714 631.002 160.752 634.218C162.269 635.865 163.879 637.433 165.577 638.914C167.206 640.478 168.986 641.895 170.894 643.144L173.709 645.133C174.147 645.45 174.649 645.68 175.183 645.809C175.694 646.034 176.235 646.191 176.791 646.275C179.151 646.691 181.541 646.931 183.94 646.994C194.146 646.907 204.337 646.229 214.455 644.963C224.955 643.779 235.722 642.298 246.757 640.733C290.81 634.048 339.018 624.995 389.415 614.756L388.521 615.941V615.56C386.422 590.853 384.366 566.781 382.4 543.639L383.785 544.612L214.008 578.246H213.383L213.07 577.654C195.646 545.628 180.947 519.778 170.849 501.883C165.756 493.041 161.914 486.102 159.054 481.322L155.882 475.991L154.586 474.172Z" fill="#263238"/>
</svg>
